<?xml version="1.0" encoding="utf-8" standalone="no"?>
<!DOCTYPE svg PUBLIC "-//W3C//DTD SVG 1.1//EN"
  "http://www.w3.org/Graphics/SVG/1.1/DTD/svg11.dtd">
<svg xmlns:xlink="http://www.w3.org/1999/xlink" width="729.5725pt" height="351.879375pt" viewBox="0 0 729.5725 351.879375" xmlns="http://www.w3.org/2000/svg" version="1.1">
 <metadata>
  <rdf:RDF xmlns:dc="http://purl.org/dc/elements/1.1/" xmlns:cc="http://creativecommons.org/ns#" xmlns:rdf="http://www.w3.org/1999/02/22-rdf-syntax-ns#">
   <cc:Work>
    <dc:type rdf:resource="http://purl.org/dc/dcmitype/StillImage"/>
    <dc:date>2026-08-14T19:37:51.054396</dc:date>
    <dc:format>image/svg+xml</dc:format>
    <dc:creator>
     <cc:Agent>
      <dc:title>Matplotlib v3.6.2, https://matplotlib.org/</dc:title>
     </cc:Agent>
    </dc:creator>
   </cc:Work>
  </rdf:RDF>
 </metadata>
 <defs>
  <style type="text/css">*{stroke-linejoin: round; stroke-linecap: butt}</style>
 </defs>
 <g id="figure_1">
  <g id="patch_1">
   <path d="M 0 351.879375 
L 729.5725 351.879375 
L 729.5725 0 
L 0 0 
L 0 351.879375 
z
" style="fill: none"/>
  </g>
  <g id="axes_1">
   <g id="patch_2">
    <path d="M 52.7725 308.51625 
L 722.3725 308.51625 
L 722.3725 145.43625 
L 52.7725 145.43625 
z
" style="fill: #ffffff"/>
   </g>
   <g id="PolyCollection_1">
    <defs>
     <path id="m909a221ac0" d="M 252.539174 -193.89851 
L 252.539174 -165.045894 
L 259.972532 -165.045894 
L 260.004274 -166.300356 
L 260.254086 -166.300356 
L 260.269127 -165.045894 
L 267.724878 -165.045894 
L 267.727273 -163.791433 
L 274.629587 -163.791433 
L 274.664046 -162.536971 
L 276.318177 -162.536971 
L 276.319851 -161.28251 
L 282.388963 -161.28251 
L 282.410854 -160.028048 
L 283.00036 -160.028048 
L 283.019881 -158.773587 
L 296.767606 -158.773587 
L 296.767696 -156.264663 
L 297.030862 -156.264663 
L 297.141449 -157.519125 
L 298.328547 -157.519125 
L 298.331238 -156.264663 
L 298.807388 -156.264663 
L 298.826691 -155.010202 
L 303.370815 -155.010202 
L 303.405647 -156.264663 
L 306.499122 -156.264663 
L 306.599317 -155.010202 
L 309.305312 -155.010202 
L 309.38918 -156.264663 
L 309.694363 -156.264663 
L 309.733522 -155.010202 
L 310.609796 -155.010202 
L 310.619377 -153.75574 
L 311.965543 -153.75574 
L 312.288071 -151.246817 
L 313.324599 -151.246817 
L 313.343503 -149.992356 
L 316.40145 -149.992356 
L 316.419143 -148.737894 
L 317.035574 -148.737894 
L 317.094834 -149.992356 
L 320.281409 -149.992356 
L 320.294067 -148.737894 
L 323.036194 -148.737894 
L 323.040083 -147.483433 
L 323.330793 -147.483433 
L 323.359161 -146.228971 
L 324.047806 -146.228971 
L 324.05239 -146.228971 
L 324.533716 -146.228971 
L 324.539472 -144.97451 
L 324.616412 -144.97451 
L 330.423132 -142.465587 
L 332.380076 -142.465587 
L 332.707832 -141.211125 
L 332.816037 -141.211125 
L 332.853097 -139.956663 
L 333.446839 -139.956663 
L 333.450754 -138.702202 
L 336.080814 -138.702202 
L 336.101803 -137.44774 
L 336.145314 -137.44774 
L 336.163844 -136.193279 
L 336.755088 -136.193279 
L 336.760342 -134.938817 
L 337.484656 -134.938817 
L 337.48951 -133.684356 
L 337.733863 -133.684356 
L 337.736438 -132.429894 
L 339.015413 -132.429894 
L 339.015877 -131.175433 
L 340.6356 -131.175433 
L 340.638189 -129.920971 
L 340.960485 -129.920971 
L 340.982788 -128.66651 
L 340.996824 -128.66651 
L 341.039794 -126.157587 
L 341.514463 -126.157587 
L 341.519253 -124.903125 
L 341.628566 -124.903125 
L 341.675592 -123.648663 
L 341.779741 -123.648663 
L 341.78699 -122.394202 
L 341.918013 -122.394202 
L 341.919314 -122.394202 
L 342.636417 -122.394202 
L 342.65908 -121.13974 
L 342.799026 -121.13974 
L 342.802349 -119.885279 
L 343.344454 -119.885279 
L 343.351794 -118.630817 
L 343.548528 -118.630817 
L 343.55073 -117.376356 
L 344.096788 -117.376356 
L 344.170457 -116.121894 
L 344.843959 -116.121894 
L 344.86066 -114.867433 
L 345.012209 -114.867433 
L 345.033984 -113.612971 
L 345.169101 -113.612971 
L 345.181643 -112.35851 
L 345.264223 -112.35851 
L 345.286436 -111.104048 
L 346.107971 -111.104048 
L 346.191259 -109.849587 
L 347.06546 -109.849587 
L 347.099417 -108.595125 
L 348.121934 -108.595125 
L 348.122939 -107.340663 
L 348.134052 -107.340663 
L 348.180421 -106.086202 
L 348.482488 -106.086202 
L 348.48639 -104.83174 
L 348.666924 -104.83174 
L 348.701216 -103.577279 
L 348.709534 -103.577279 
L 348.718496 -102.322817 
L 351.245502 -102.322817 
L 351.386337 -101.068356 
L 351.437214 -101.068356 
L 351.452164 -101.068356 
L 351.480081 -101.068356 
L 351.481176 -99.813894 
L 351.577804 -99.813894 
L 351.668226 -98.559433 
L 351.727962 -98.559433 
L 351.823998 -97.304971 
L 351.93313 -97.304971 
L 352.01674 -98.559433 
L 352.259882 -98.559433 
L 352.290156 -97.304971 
L 352.613997 -97.304971 
L 352.617268 -96.05051 
L 352.69735 -96.05051 
L 352.729503 -94.796048 
L 352.933899 -94.796048 
L 353.008521 -93.541587 
L 353.091242 -93.541587 
L 353.103153 -92.287125 
L 353.260844 -92.287125 
L 353.288542 -91.032663 
L 353.324301 -91.032663 
L 353.402876 -89.778202 
L 353.815723 -89.778202 
L 353.964851 -87.269279 
L 354.410174 -87.269279 
L 354.510202 -84.760356 
L 355.161233 -84.760356 
L 355.178823 -83.505894 
L 355.525212 -83.505894 
L 355.531857 -80.996971 
L 355.581214 -80.996971 
L 355.592391 -79.74251 
L 355.601353 -79.74251 
L 355.690925 -78.488048 
L 355.878413 -78.488048 
L 355.91922 -75.979125 
L 356.109773 -75.979125 
L 356.110636 -74.724663 
L 356.594422 -74.724663 
L 356.611535 -73.470202 
L 356.776811 -73.470202 
L 356.793319 -72.21574 
L 357.501627 -72.21574 
L 357.517169 -69.706817 
L 357.731879 -69.706817 
L 357.794087 -67.197894 
L 358.170789 -67.197894 
L 358.267263 -64.688971 
L 358.267353 -64.688971 
L 358.337893 -62.180048 
L 358.634513 -62.180048 
L 358.658605 -58.416663 
L 358.673916 -58.416663 
L 358.688995 -57.162202 
L 358.753186 -57.162202 
L 358.800483 -55.90774 
L 359.083698 -55.90774 
L 359.126154 -54.653279 
L 359.131317 -54.653279 
L 359.147607 -53.398817 
L 359.17515 -53.398817 
L 359.180868 -54.653279 
L 359.400162 -54.653279 
L 359.402827 -53.398817 
L 359.450304 -53.398817 
L 359.45427 -52.144356 
L 359.507993 -52.144356 
L 359.519853 -53.398817 
L 359.619494 -53.398817 
L 359.645119 -54.653279 
L 359.846489 -54.653279 
L 359.872011 -55.90774 
L 359.927665 -55.90774 
L 360.018357 -57.162202 
L 360.037466 -57.162202 
L 360.041265 -58.416663 
L 360.292481 -58.416663 
L 360.30331 -59.671125 
L 360.699765 -59.671125 
L 360.720342 -60.925587 
L 360.890614 -60.925587 
L 361.235419 -62.180048 
L 361.432539 -62.180048 
L 361.755969 -64.688971 
L 361.784685 -64.688971 
L 361.791084 -65.943433 
L 361.791793 -65.943433 
L 361.883772 -68.452356 
L 362.187784 -68.452356 
L 362.223376 -69.706817 
L 362.689301 -69.706817 
L 362.801433 -72.21574 
L 363.754455 -72.21574 
L 363.885902 -74.724663 
L 364.341385 -74.724663 
L 364.512725 -77.233587 
L 364.668356 -77.233587 
L 364.682005 -79.74251 
L 364.743892 -79.74251 
L 364.908587 -83.505894 
L 364.908626 -83.505894 
L 364.920112 -84.760356 
L 365.266553 -84.760356 
L 365.340454 -91.032663 
L 365.437803 -91.032663 
L 365.496445 -94.796048 
L 365.805993 -94.796048 
L 365.814749 -96.05051 
L 365.979407 -96.05051 
L 366.077696 -97.304971 
L 366.127517 -97.304971 
L 366.221274 -98.559433 
L 366.785438 -98.559433 
L 366.942691 -99.813894 
L 366.973569 -99.813894 
L 367.108957 -103.577279 
L 367.137145 -103.577279 
L 367.143532 -104.83174 
L 367.180721 -104.83174 
L 367.364796 -106.086202 
L 367.485221 -106.086202 
L 367.537939 -107.340663 
L 367.634362 -107.340663 
L 367.645359 -108.595125 
L 367.746687 -108.595125 
L 367.829215 -109.849587 
L 367.857235 -109.849587 
L 367.895454 -111.104048 
L 367.92435 -111.104048 
L 367.936609 -112.35851 
L 367.988696 -112.35851 
L 368.010291 -113.612971 
L 368.142755 -113.612971 
L 368.151679 -114.867433 
L 368.309615 -114.867433 
L 368.332149 -116.121894 
L 369.931463 -116.121894 
L 369.945666 -117.376356 
L 369.946877 -117.376356 
L 369.948538 -118.630817 
L 370.348933 -118.630817 
L 370.392972 -117.376356 
L 371.674728 -117.376356 
L 371.674818 -118.630817 
L 377.038507 -118.630817 
L 377.046105 -119.885279 
L 377.119902 -119.885279 
L 377.120469 -118.630817 
L 377.900128 -118.630817 
L 377.921581 -117.376356 
L 378.117722 -117.376356 
L 378.144699 -116.121894 
L 378.150224 -116.121894 
L 378.150932 -116.121894 
L 378.203598 -116.121894 
L 378.20732 -117.376356 
L 378.21323 -117.376356 
L 378.297227 -119.885279 
L 379.309275 -119.885279 
L 379.371664 -119.885279 
L 381.001883 -119.885279 
L 381.014206 -119.885279 
L 381.426435 -119.885279 
L 381.426692 -121.13974 
L 381.426885 -121.13974 
L 381.463932 -122.394202 
L 381.47923 -122.394202 
L 381.482282 -122.394202 
L 387.10593 -122.394202 
L 387.229871 -123.648663 
L 389.562925 -123.648663 
L 389.852707 -126.157587 
L 392.479367 -126.157587 
L 392.484711 -124.903125 
L 392.675238 -124.903125 
L 392.678033 -123.648663 
L 396.475888 -123.648663 
L 396.47621 -124.903125 
L 400.939879 -124.903125 
L 400.993267 -126.157587 
L 402.033104 -126.157587 
L 402.041719 -127.412048 
L 408.430308 -127.412048 
L 408.431635 -126.157587 
L 412.252102 -126.157587 
L 412.265223 -124.903125 
L 413.531476 -124.903125 
L 413.544224 -126.157587 
L 413.954173 -126.157587 
L 414.081797 -124.903125 
L 415.187113 -124.903125 
L 415.248562 -123.648663 
L 417.638673 -123.648663 
L 417.934289 -122.394202 
L 421.01638 -122.394202 
L 421.212547 -119.885279 
L 422.808925 -119.885279 
L 422.817218 -121.13974 
L 423.894875 -121.13974 
L 423.964075 -119.885279 
L 424.279676 -119.885279 
L 424.310542 -121.13974 
L 424.755002 -121.13974 
L 424.758079 -122.394202 
L 426.681093 -122.394202 
L 426.694099 -123.648663 
L 427.845991 -123.648663 
L 427.866169 -122.394202 
L 428.352492 -122.394202 
L 428.372593 -123.648663 
L 428.500989 -123.648663 
L 428.535885 -124.903125 
L 432.554322 -124.903125 
L 432.589399 -126.157587 
L 434.461575 -126.157587 
L 434.469108 -124.903125 
L 441.141942 -124.903125 
L 441.226196 -126.157587 
L 442.284447 -126.157587 
L 442.301187 -127.412048 
L 454.523048 -127.412048 
L 454.541025 -128.66651 
L 458.902425 -128.66651 
L 458.920672 -127.412048 
L 458.961994 -127.412048 
L 458.975631 -128.66651 
L 462.457293 -128.66651 
L 462.480987 -129.920971 
L 470.463597 -129.920971 
L 470.496112 -131.175433 
L 471.652871 -131.175433 
L 471.660675 -129.920971 
L 477.910052 -129.920971 
L 477.931299 -131.175433 
L 477.989386 -131.175433 
L 478.00171 -132.429894 
L 497.552948 -132.429894 
L 497.5637 -133.684356 
L 507.09234 -133.684356 
L 507.114359 -134.938817 
L 507.746037 -134.938817 
L 507.762197 -136.193279 
L 525.913482 -136.193279 
L 526.092716 -137.44774 
L 542.568392 -137.44774 
L 542.682507 -137.44774 
L 553.524387 -137.44774 
L 553.536028 -137.44774 
L 553.74663 -137.44774 
L 553.747956 -137.44774 
L 570.883394 -137.44774 
L 570.884965 -137.44774 
L 576.589879 -137.44774 
L 576.637524 -136.193279 
L 589.00152 -136.193279 
L 589.261712 -137.44774 
L 595.100765 -137.44774 
L 595.104834 -136.193279 
L 595.153161 -136.193279 
L 595.16739 -136.193279 
L 595.478857 -136.193279 
L 595.485257 -134.938817 
L 598.377105 -134.938817 
L 598.41562 -133.684356 
L 599.679786 -133.684356 
L 599.685851 -134.938817 
L 608.850306 -134.938817 
L 608.924773 -136.193279 
L 611.936814 -136.193279 
L 611.962208 -134.938817 
L 669.832078 -134.938817 
L 669.842174 -136.193279 
L 674.213838 -136.193279 
L 674.246996 -137.44774 
L 675.218006 -137.44774 
L 675.277098 -136.193279 
L 676.360769 -136.193279 
L 676.367993 -137.44774 
L 696.858319 -137.44774 
L 696.870926 -136.193279 
L 706.375962 -136.193279 
L 706.375962 -193.89851 
L 706.375962 -193.89851 
L 696.870926 -193.89851 
L 696.858319 -193.89851 
L 676.367993 -193.89851 
L 676.360769 -193.89851 
L 675.277098 -193.89851 
L 675.218006 -193.89851 
L 674.246996 -193.89851 
L 674.213838 -193.89851 
L 669.842174 -193.89851 
L 669.832078 -193.89851 
L 611.962208 -193.89851 
L 611.936814 -193.89851 
L 608.924773 -193.89851 
L 608.850306 -193.89851 
L 599.685851 -193.89851 
L 599.679786 -193.89851 
L 598.41562 -193.89851 
L 598.377105 -193.89851 
L 595.485257 -193.89851 
L 595.478857 -193.89851 
L 595.16739 -193.89851 
L 595.153161 -193.89851 
L 595.104834 -193.89851 
L 595.100765 -193.89851 
L 589.261712 -193.89851 
L 589.00152 -193.89851 
L 576.637524 -193.89851 
L 576.589879 -193.89851 
L 570.884965 -193.89851 
L 570.883394 -193.89851 
L 553.747956 -193.89851 
L 553.74663 -193.89851 
L 553.536028 -193.89851 
L 553.524387 -193.89851 
L 542.682507 -193.89851 
L 542.568392 -193.89851 
L 526.092716 -193.89851 
L 525.913482 -193.89851 
L 507.762197 -193.89851 
L 507.746037 -193.89851 
L 507.114359 -193.89851 
L 507.09234 -193.89851 
L 497.5637 -193.89851 
L 497.552948 -193.89851 
L 478.00171 -193.89851 
L 477.989386 -193.89851 
L 477.931299 -193.89851 
L 477.910052 -193.89851 
L 471.660675 -193.89851 
L 471.652871 -193.89851 
L 470.496112 -193.89851 
L 470.463597 -193.89851 
L 462.480987 -193.89851 
L 462.457293 -193.89851 
L 458.975631 -193.89851 
L 458.961994 -193.89851 
L 458.920672 -193.89851 
L 458.902425 -193.89851 
L 454.541025 -193.89851 
L 454.523048 -193.89851 
L 442.301187 -193.89851 
L 442.284447 -193.89851 
L 441.226196 -193.89851 
L 441.141942 -193.89851 
L 434.469108 -193.89851 
L 434.461575 -193.89851 
L 432.589399 -193.89851 
L 432.554322 -193.89851 
L 428.535885 -193.89851 
L 428.500989 -193.89851 
L 428.372593 -193.89851 
L 428.352492 -193.89851 
L 427.866169 -193.89851 
L 427.845991 -193.89851 
L 426.694099 -193.89851 
L 426.681093 -193.89851 
L 424.758079 -193.89851 
L 424.755002 -193.89851 
L 424.310542 -193.89851 
L 424.279676 -193.89851 
L 423.964075 -193.89851 
L 423.894875 -193.89851 
L 422.817218 -193.89851 
L 422.808925 -193.89851 
L 421.212547 -193.89851 
L 421.01638 -193.89851 
L 417.934289 -193.89851 
L 417.638673 -193.89851 
L 415.248562 -193.89851 
L 415.187113 -193.89851 
L 414.081797 -193.89851 
L 413.954173 -193.89851 
L 413.544224 -193.89851 
L 413.531476 -193.89851 
L 412.265223 -193.89851 
L 412.252102 -193.89851 
L 408.431635 -193.89851 
L 408.430308 -193.89851 
L 402.041719 -193.89851 
L 402.033104 -193.89851 
L 400.993267 -193.89851 
L 400.939879 -193.89851 
L 396.47621 -193.89851 
L 396.475888 -193.89851 
L 392.678033 -193.89851 
L 392.675238 -193.89851 
L 392.484711 -193.89851 
L 392.479367 -193.89851 
L 389.852707 -193.89851 
L 389.562925 -193.89851 
L 387.229871 -193.89851 
L 387.10593 -193.89851 
L 381.482282 -193.89851 
L 381.47923 -193.89851 
L 381.463932 -193.89851 
L 381.426885 -193.89851 
L 381.426692 -193.89851 
L 381.426435 -193.89851 
L 381.014206 -193.89851 
L 381.001883 -193.89851 
L 379.371664 -193.89851 
L 379.309275 -193.89851 
L 378.297227 -193.89851 
L 378.21323 -193.89851 
L 378.20732 -193.89851 
L 378.203598 -193.89851 
L 378.150932 -193.89851 
L 378.150224 -193.89851 
L 378.144699 -193.89851 
L 378.117722 -193.89851 
L 377.921581 -193.89851 
L 377.900128 -193.89851 
L 377.120469 -193.89851 
L 377.119902 -193.89851 
L 377.046105 -193.89851 
L 377.038507 -193.89851 
L 371.674818 -193.89851 
L 371.674728 -193.89851 
L 370.392972 -193.89851 
L 370.348933 -193.89851 
L 369.948538 -193.89851 
L 369.946877 -193.89851 
L 369.945666 -193.89851 
L 369.931463 -193.89851 
L 368.332149 -193.89851 
L 368.309615 -193.89851 
L 368.151679 -193.89851 
L 368.142755 -193.89851 
L 368.010291 -193.89851 
L 367.988696 -193.89851 
L 367.936609 -193.89851 
L 367.92435 -193.89851 
L 367.895454 -193.89851 
L 367.857235 -193.89851 
L 367.829215 -193.89851 
L 367.746687 -193.89851 
L 367.645359 -193.89851 
L 367.634362 -193.89851 
L 367.537939 -193.89851 
L 367.485221 -193.89851 
L 367.364796 -193.89851 
L 367.180721 -193.89851 
L 367.143532 -193.89851 
L 367.137145 -193.89851 
L 367.108957 -193.89851 
L 366.973569 -193.89851 
L 366.942691 -193.89851 
L 366.785438 -193.89851 
L 366.221274 -193.89851 
L 366.127517 -193.89851 
L 366.077696 -193.89851 
L 365.979407 -193.89851 
L 365.814749 -193.89851 
L 365.805993 -193.89851 
L 365.496445 -193.89851 
L 365.437803 -193.89851 
L 365.340454 -193.89851 
L 365.266553 -193.89851 
L 364.920112 -193.89851 
L 364.908626 -193.89851 
L 364.908587 -193.89851 
L 364.743892 -193.89851 
L 364.682005 -193.89851 
L 364.668356 -193.89851 
L 364.512725 -193.89851 
L 364.341385 -193.89851 
L 363.885902 -193.89851 
L 363.754455 -193.89851 
L 362.801433 -193.89851 
L 362.689301 -193.89851 
L 362.223376 -193.89851 
L 362.187784 -193.89851 
L 361.883772 -193.89851 
L 361.791793 -193.89851 
L 361.791084 -193.89851 
L 361.784685 -193.89851 
L 361.755969 -193.89851 
L 361.432539 -193.89851 
L 361.235419 -193.89851 
L 360.890614 -193.89851 
L 360.720342 -193.89851 
L 360.699765 -193.89851 
L 360.30331 -193.89851 
L 360.292481 -193.89851 
L 360.041265 -193.89851 
L 360.037466 -193.89851 
L 360.018357 -193.89851 
L 359.927665 -193.89851 
L 359.872011 -193.89851 
L 359.846489 -193.89851 
L 359.645119 -193.89851 
L 359.619494 -193.89851 
L 359.519853 -193.89851 
L 359.507993 -193.89851 
L 359.45427 -193.89851 
L 359.450304 -193.89851 
L 359.402827 -193.89851 
L 359.400162 -193.89851 
L 359.180868 -193.89851 
L 359.17515 -193.89851 
L 359.147607 -193.89851 
L 359.131317 -193.89851 
L 359.126154 -193.89851 
L 359.083698 -193.89851 
L 358.800483 -193.89851 
L 358.753186 -193.89851 
L 358.688995 -193.89851 
L 358.673916 -193.89851 
L 358.658605 -193.89851 
L 358.634513 -193.89851 
L 358.337893 -193.89851 
L 358.267353 -193.89851 
L 358.267263 -193.89851 
L 358.170789 -193.89851 
L 357.794087 -193.89851 
L 357.731879 -193.89851 
L 357.517169 -193.89851 
L 357.501627 -193.89851 
L 356.793319 -193.89851 
L 356.776811 -193.89851 
L 356.611535 -193.89851 
L 356.594422 -193.89851 
L 356.110636 -193.89851 
L 356.109773 -193.89851 
L 355.91922 -193.89851 
L 355.878413 -193.89851 
L 355.690925 -193.89851 
L 355.601353 -193.89851 
L 355.592391 -193.89851 
L 355.581214 -193.89851 
L 355.531857 -193.89851 
L 355.525212 -193.89851 
L 355.178823 -193.89851 
L 355.161233 -193.89851 
L 354.510202 -193.89851 
L 354.410174 -193.89851 
L 353.964851 -193.89851 
L 353.815723 -193.89851 
L 353.402876 -193.89851 
L 353.324301 -193.89851 
L 353.288542 -193.89851 
L 353.260844 -193.89851 
L 353.103153 -193.89851 
L 353.091242 -193.89851 
L 353.008521 -193.89851 
L 352.933899 -193.89851 
L 352.729503 -193.89851 
L 352.69735 -193.89851 
L 352.617268 -193.89851 
L 352.613997 -193.89851 
L 352.290156 -193.89851 
L 352.259882 -193.89851 
L 352.01674 -193.89851 
L 351.93313 -193.89851 
L 351.823998 -193.89851 
L 351.727962 -193.89851 
L 351.668226 -193.89851 
L 351.577804 -193.89851 
L 351.481176 -193.89851 
L 351.480081 -193.89851 
L 351.452164 -193.89851 
L 351.437214 -193.89851 
L 351.386337 -193.89851 
L 351.245502 -193.89851 
L 348.718496 -193.89851 
L 348.709534 -193.89851 
L 348.701216 -193.89851 
L 348.666924 -193.89851 
L 348.48639 -193.89851 
L 348.482488 -193.89851 
L 348.180421 -193.89851 
L 348.134052 -193.89851 
L 348.122939 -193.89851 
L 348.121934 -193.89851 
L 347.099417 -193.89851 
L 347.06546 -193.89851 
L 346.191259 -193.89851 
L 346.107971 -193.89851 
L 345.286436 -193.89851 
L 345.264223 -193.89851 
L 345.181643 -193.89851 
L 345.169101 -193.89851 
L 345.033984 -193.89851 
L 345.012209 -193.89851 
L 344.86066 -193.89851 
L 344.843959 -193.89851 
L 344.170457 -193.89851 
L 344.096788 -193.89851 
L 343.55073 -193.89851 
L 343.548528 -193.89851 
L 343.351794 -193.89851 
L 343.344454 -193.89851 
L 342.802349 -193.89851 
L 342.799026 -193.89851 
L 342.65908 -193.89851 
L 342.636417 -193.89851 
L 341.919314 -193.89851 
L 341.918013 -193.89851 
L 341.78699 -193.89851 
L 341.779741 -193.89851 
L 341.675592 -193.89851 
L 341.628566 -193.89851 
L 341.519253 -193.89851 
L 341.514463 -193.89851 
L 341.039794 -193.89851 
L 340.996824 -193.89851 
L 340.982788 -193.89851 
L 340.960485 -193.89851 
L 340.638189 -193.89851 
L 340.6356 -193.89851 
L 339.015877 -193.89851 
L 339.015413 -193.89851 
L 337.736438 -193.89851 
L 337.733863 -193.89851 
L 337.48951 -193.89851 
L 337.484656 -193.89851 
L 336.760342 -193.89851 
L 336.755088 -193.89851 
L 336.163844 -193.89851 
L 336.145314 -193.89851 
L 336.101803 -193.89851 
L 336.080814 -193.89851 
L 333.450754 -193.89851 
L 333.446839 -193.89851 
L 332.853097 -193.89851 
L 332.816037 -193.89851 
L 332.707832 -193.89851 
L 332.380076 -193.89851 
L 330.423132 -193.89851 
L 324.616412 -193.89851 
L 324.539472 -193.89851 
L 324.533716 -193.89851 
L 324.05239 -193.89851 
L 324.047806 -193.89851 
L 323.359161 -193.89851 
L 323.330793 -193.89851 
L 323.040083 -193.89851 
L 323.036194 -193.89851 
L 320.294067 -193.89851 
L 320.281409 -193.89851 
L 317.094834 -193.89851 
L 317.035574 -193.89851 
L 316.419143 -193.89851 
L 316.40145 -193.89851 
L 313.343503 -193.89851 
L 313.324599 -193.89851 
L 312.288071 -193.89851 
L 311.965543 -193.89851 
L 310.619377 -193.89851 
L 310.609796 -193.89851 
L 309.733522 -193.89851 
L 309.694363 -193.89851 
L 309.38918 -193.89851 
L 309.305312 -193.89851 
L 306.599317 -193.89851 
L 306.499122 -193.89851 
L 303.405647 -193.89851 
L 303.370815 -193.89851 
L 298.826691 -193.89851 
L 298.807388 -193.89851 
L 298.331238 -193.89851 
L 298.328547 -193.89851 
L 297.141449 -193.89851 
L 297.030862 -193.89851 
L 296.767696 -193.89851 
L 296.767606 -193.89851 
L 283.019881 -193.89851 
L 283.00036 -193.89851 
L 282.410854 -193.89851 
L 282.388963 -193.89851 
L 276.319851 -193.89851 
L 276.318177 -193.89851 
L 274.664046 -193.89851 
L 274.629587 -193.89851 
L 267.727273 -193.89851 
L 267.724878 -193.89851 
L 260.269127 -193.89851 
L 260.254086 -193.89851 
L 260.004274 -193.89851 
L 259.972532 -193.89851 
L 252.539174 -193.89851 
z
" style="stroke: #0000ff; stroke-opacity: 0.1"/>
    </defs>
    <g clip-path="url(#pba3e39c6db)">
     <use xlink:href="#m909a221ac0" x="0" y="351.879375" style="fill: #0000ff; fill-opacity: 0.1; stroke: #0000ff; stroke-opacity: 0.1"/>
    </g>
   </g>
   <g id="matplotlib.axis_1">
    <g id="xtick_1">
     <g id="line2d_1">
      <path d="M 52.7725 308.51625 
L 52.7725 145.43625 
" clip-path="url(#pba3e39c6db)" style="fill: none; stroke: #b0b0b0; stroke-width: 0.8; stroke-linecap: square"/>
     </g>
     <g id="line2d_2">
      <defs>
       <path id="mfda374c39b" d="M 0 0 
L 0 3.5 
" style="stroke: #000000; stroke-width: 0.8"/>
      </defs>
      <g>
       <use xlink:href="#mfda374c39b" x="52.7725" y="308.51625" style="stroke: #000000; stroke-width: 0.8"/>
      </g>
     </g>
     <g id="text_1">
      <!-- 0 -->
      <g transform="translate(49.59125 323.114688) scale(0.1 -0.1)">
       <defs>
        <path id="DejaVuSans-30" d="M 2034 4250 
Q 1547 4250 1301 3770 
Q 1056 3291 1056 2328 
Q 1056 1369 1301 889 
Q 1547 409 2034 409 
Q 2525 409 2770 889 
Q 3016 1369 3016 2328 
Q 3016 3291 2770 3770 
Q 2525 4250 2034 4250 
z
M 2034 4750 
Q 2819 4750 3233 4129 
Q 3647 3509 3647 2328 
Q 3647 1150 3233 529 
Q 2819 -91 2034 -91 
Q 1250 -91 836 529 
Q 422 1150 422 2328 
Q 422 3509 836 4129 
Q 1250 4750 2034 4750 
z
" transform="scale(0.015625)"/>
       </defs>
       <use xlink:href="#DejaVuSans-30"/>
      </g>
     </g>
    </g>
    <g id="xtick_2">
     <g id="line2d_3">
      <path d="M 181.541731 308.51625 
L 181.541731 145.43625 
" clip-path="url(#pba3e39c6db)" style="fill: none; stroke: #b0b0b0; stroke-width: 0.8; stroke-linecap: square"/>
     </g>
     <g id="line2d_4">
      <g>
       <use xlink:href="#mfda374c39b" x="181.541731" y="308.51625" style="stroke: #000000; stroke-width: 0.8"/>
      </g>
     </g>
     <g id="text_2">
      <!-- 10 -->
      <g transform="translate(175.179231 323.114688) scale(0.1 -0.1)">
       <defs>
        <path id="DejaVuSans-31" d="M 794 531 
L 1825 531 
L 1825 4091 
L 703 3866 
L 703 4441 
L 1819 4666 
L 2450 4666 
L 2450 531 
L 3481 531 
L 3481 0 
L 794 0 
L 794 531 
z
" transform="scale(0.015625)"/>
       </defs>
       <use xlink:href="#DejaVuSans-31"/>
       <use xlink:href="#DejaVuSans-30" x="63.623047"/>
      </g>
     </g>
    </g>
    <g id="xtick_3">
     <g id="line2d_5">
      <path d="M 310.310962 308.51625 
L 310.310962 145.43625 
" clip-path="url(#pba3e39c6db)" style="fill: none; stroke: #b0b0b0; stroke-width: 0.8; stroke-linecap: square"/>
     </g>
     <g id="line2d_6">
      <g>
       <use xlink:href="#mfda374c39b" x="310.310962" y="308.51625" style="stroke: #000000; stroke-width: 0.8"/>
      </g>
     </g>
     <g id="text_3">
      <!-- 20 -->
      <g transform="translate(303.948462 323.114688) scale(0.1 -0.1)">
       <defs>
        <path id="DejaVuSans-32" d="M 1228 531 
L 3431 531 
L 3431 0 
L 469 0 
L 469 531 
Q 828 903 1448 1529 
Q 2069 2156 2228 2338 
Q 2531 2678 2651 2914 
Q 2772 3150 2772 3378 
Q 2772 3750 2511 3984 
Q 2250 4219 1831 4219 
Q 1534 4219 1204 4116 
Q 875 4013 500 3803 
L 500 4441 
Q 881 4594 1212 4672 
Q 1544 4750 1819 4750 
Q 2544 4750 2975 4387 
Q 3406 4025 3406 3419 
Q 3406 3131 3298 2873 
Q 3191 2616 2906 2266 
Q 2828 2175 2409 1742 
Q 1991 1309 1228 531 
z
" transform="scale(0.015625)"/>
       </defs>
       <use xlink:href="#DejaVuSans-32"/>
       <use xlink:href="#DejaVuSans-30" x="63.623047"/>
      </g>
     </g>
    </g>
    <g id="xtick_4">
     <g id="line2d_7">
      <path d="M 439.080192 308.51625 
L 439.080192 145.43625 
" clip-path="url(#pba3e39c6db)" style="fill: none; stroke: #b0b0b0; stroke-width: 0.8; stroke-linecap: square"/>
     </g>
     <g id="line2d_8">
      <g>
       <use xlink:href="#mfda374c39b" x="439.080192" y="308.51625" style="stroke: #000000; stroke-width: 0.8"/>
      </g>
     </g>
     <g id="text_4">
      <!-- 30 -->
      <g transform="translate(432.717692 323.114688) scale(0.1 -0.1)">
       <defs>
        <path id="DejaVuSans-33" d="M 2597 2516 
Q 3050 2419 3304 2112 
Q 3559 1806 3559 1356 
Q 3559 666 3084 287 
Q 2609 -91 1734 -91 
Q 1441 -91 1130 -33 
Q 819 25 488 141 
L 488 750 
Q 750 597 1062 519 
Q 1375 441 1716 441 
Q 2309 441 2620 675 
Q 2931 909 2931 1356 
Q 2931 1769 2642 2001 
Q 2353 2234 1838 2234 
L 1294 2234 
L 1294 2753 
L 1863 2753 
Q 2328 2753 2575 2939 
Q 2822 3125 2822 3475 
Q 2822 3834 2567 4026 
Q 2313 4219 1838 4219 
Q 1578 4219 1281 4162 
Q 984 4106 628 3988 
L 628 4550 
Q 988 4650 1302 4700 
Q 1616 4750 1894 4750 
Q 2613 4750 3031 4423 
Q 3450 4097 3450 3541 
Q 3450 3153 3228 2886 
Q 3006 2619 2597 2516 
z
" transform="scale(0.015625)"/>
       </defs>
       <use xlink:href="#DejaVuSans-33"/>
       <use xlink:href="#DejaVuSans-30" x="63.623047"/>
      </g>
     </g>
    </g>
    <g id="xtick_5">
     <g id="line2d_9">
      <path d="M 567.849423 308.51625 
L 567.849423 145.43625 
" clip-path="url(#pba3e39c6db)" style="fill: none; stroke: #b0b0b0; stroke-width: 0.8; stroke-linecap: square"/>
     </g>
     <g id="line2d_10">
      <g>
       <use xlink:href="#mfda374c39b" x="567.849423" y="308.51625" style="stroke: #000000; stroke-width: 0.8"/>
      </g>
     </g>
     <g id="text_5">
      <!-- 40 -->
      <g transform="translate(561.486923 323.114688) scale(0.1 -0.1)">
       <defs>
        <path id="DejaVuSans-34" d="M 2419 4116 
L 825 1625 
L 2419 1625 
L 2419 4116 
z
M 2253 4666 
L 3047 4666 
L 3047 1625 
L 3713 1625 
L 3713 1100 
L 3047 1100 
L 3047 0 
L 2419 0 
L 2419 1100 
L 313 1100 
L 313 1709 
L 2253 4666 
z
" transform="scale(0.015625)"/>
       </defs>
       <use xlink:href="#DejaVuSans-34"/>
       <use xlink:href="#DejaVuSans-30" x="63.623047"/>
      </g>
     </g>
    </g>
    <g id="xtick_6">
     <g id="line2d_11">
      <path d="M 696.618654 308.51625 
L 696.618654 145.43625 
" clip-path="url(#pba3e39c6db)" style="fill: none; stroke: #b0b0b0; stroke-width: 0.8; stroke-linecap: square"/>
     </g>
     <g id="line2d_12">
      <g>
       <use xlink:href="#mfda374c39b" x="696.618654" y="308.51625" style="stroke: #000000; stroke-width: 0.8"/>
      </g>
     </g>
     <g id="text_6">
      <!-- 50 -->
      <g transform="translate(690.256154 323.114688) scale(0.1 -0.1)">
       <defs>
        <path id="DejaVuSans-35" d="M 691 4666 
L 3169 4666 
L 3169 4134 
L 1269 4134 
L 1269 2991 
Q 1406 3038 1543 3061 
Q 1681 3084 1819 3084 
Q 2600 3084 3056 2656 
Q 3513 2228 3513 1497 
Q 3513 744 3044 326 
Q 2575 -91 1722 -91 
Q 1428 -91 1123 -41 
Q 819 9 494 109 
L 494 744 
Q 775 591 1075 516 
Q 1375 441 1709 441 
Q 2250 441 2565 725 
Q 2881 1009 2881 1497 
Q 2881 1984 2565 2268 
Q 2250 2553 1709 2553 
Q 1456 2553 1204 2497 
Q 953 2441 691 2322 
L 691 4666 
z
" transform="scale(0.015625)"/>
       </defs>
       <use xlink:href="#DejaVuSans-35"/>
       <use xlink:href="#DejaVuSans-30" x="63.623047"/>
      </g>
     </g>
    </g>
    <g id="text_7">
     <!-- Genomic position -->
     <g transform="translate(317.8425 341.351875) scale(0.16 -0.16)">
      <defs>
       <path id="DejaVuSans-47" d="M 3809 666 
L 3809 1919 
L 2778 1919 
L 2778 2438 
L 4434 2438 
L 4434 434 
Q 4069 175 3628 42 
Q 3188 -91 2688 -91 
Q 1594 -91 976 548 
Q 359 1188 359 2328 
Q 359 3472 976 4111 
Q 1594 4750 2688 4750 
Q 3144 4750 3555 4637 
Q 3966 4525 4313 4306 
L 4313 3634 
Q 3963 3931 3569 4081 
Q 3175 4231 2741 4231 
Q 1884 4231 1454 3753 
Q 1025 3275 1025 2328 
Q 1025 1384 1454 906 
Q 1884 428 2741 428 
Q 3075 428 3337 486 
Q 3600 544 3809 666 
z
" transform="scale(0.015625)"/>
       <path id="DejaVuSans-65" d="M 3597 1894 
L 3597 1613 
L 953 1613 
Q 991 1019 1311 708 
Q 1631 397 2203 397 
Q 2534 397 2845 478 
Q 3156 559 3463 722 
L 3463 178 
Q 3153 47 2828 -22 
Q 2503 -91 2169 -91 
Q 1331 -91 842 396 
Q 353 884 353 1716 
Q 353 2575 817 3079 
Q 1281 3584 2069 3584 
Q 2775 3584 3186 3129 
Q 3597 2675 3597 1894 
z
M 3022 2063 
Q 3016 2534 2758 2815 
Q 2500 3097 2075 3097 
Q 1594 3097 1305 2825 
Q 1016 2553 972 2059 
L 3022 2063 
z
" transform="scale(0.015625)"/>
       <path id="DejaVuSans-6e" d="M 3513 2113 
L 3513 0 
L 2938 0 
L 2938 2094 
Q 2938 2591 2744 2837 
Q 2550 3084 2163 3084 
Q 1697 3084 1428 2787 
Q 1159 2491 1159 1978 
L 1159 0 
L 581 0 
L 581 3500 
L 1159 3500 
L 1159 2956 
Q 1366 3272 1645 3428 
Q 1925 3584 2291 3584 
Q 2894 3584 3203 3211 
Q 3513 2838 3513 2113 
z
" transform="scale(0.015625)"/>
       <path id="DejaVuSans-6f" d="M 1959 3097 
Q 1497 3097 1228 2736 
Q 959 2375 959 1747 
Q 959 1119 1226 758 
Q 1494 397 1959 397 
Q 2419 397 2687 759 
Q 2956 1122 2956 1747 
Q 2956 2369 2687 2733 
Q 2419 3097 1959 3097 
z
M 1959 3584 
Q 2709 3584 3137 3096 
Q 3566 2609 3566 1747 
Q 3566 888 3137 398 
Q 2709 -91 1959 -91 
Q 1206 -91 779 398 
Q 353 888 353 1747 
Q 353 2609 779 3096 
Q 1206 3584 1959 3584 
z
" transform="scale(0.015625)"/>
       <path id="DejaVuSans-6d" d="M 3328 2828 
Q 3544 3216 3844 3400 
Q 4144 3584 4550 3584 
Q 5097 3584 5394 3201 
Q 5691 2819 5691 2113 
L 5691 0 
L 5113 0 
L 5113 2094 
Q 5113 2597 4934 2840 
Q 4756 3084 4391 3084 
Q 3944 3084 3684 2787 
Q 3425 2491 3425 1978 
L 3425 0 
L 2847 0 
L 2847 2094 
Q 2847 2600 2669 2842 
Q 2491 3084 2119 3084 
Q 1678 3084 1418 2786 
Q 1159 2488 1159 1978 
L 1159 0 
L 581 0 
L 581 3500 
L 1159 3500 
L 1159 2956 
Q 1356 3278 1631 3431 
Q 1906 3584 2284 3584 
Q 2666 3584 2933 3390 
Q 3200 3197 3328 2828 
z
" transform="scale(0.015625)"/>
       <path id="DejaVuSans-69" d="M 603 3500 
L 1178 3500 
L 1178 0 
L 603 0 
L 603 3500 
z
M 603 4863 
L 1178 4863 
L 1178 4134 
L 603 4134 
L 603 4863 
z
" transform="scale(0.015625)"/>
       <path id="DejaVuSans-63" d="M 3122 3366 
L 3122 2828 
Q 2878 2963 2633 3030 
Q 2388 3097 2138 3097 
Q 1578 3097 1268 2742 
Q 959 2388 959 1747 
Q 959 1106 1268 751 
Q 1578 397 2138 397 
Q 2388 397 2633 464 
Q 2878 531 3122 666 
L 3122 134 
Q 2881 22 2623 -34 
Q 2366 -91 2075 -91 
Q 1284 -91 818 406 
Q 353 903 353 1747 
Q 353 2603 823 3093 
Q 1294 3584 2113 3584 
Q 2378 3584 2631 3529 
Q 2884 3475 3122 3366 
z
" transform="scale(0.015625)"/>
       <path id="DejaVuSans-20" transform="scale(0.015625)"/>
       <path id="DejaVuSans-70" d="M 1159 525 
L 1159 -1331 
L 581 -1331 
L 581 3500 
L 1159 3500 
L 1159 2969 
Q 1341 3281 1617 3432 
Q 1894 3584 2278 3584 
Q 2916 3584 3314 3078 
Q 3713 2572 3713 1747 
Q 3713 922 3314 415 
Q 2916 -91 2278 -91 
Q 1894 -91 1617 61 
Q 1341 213 1159 525 
z
M 3116 1747 
Q 3116 2381 2855 2742 
Q 2594 3103 2138 3103 
Q 1681 3103 1420 2742 
Q 1159 2381 1159 1747 
Q 1159 1113 1420 752 
Q 1681 391 2138 391 
Q 2594 391 2855 752 
Q 3116 1113 3116 1747 
z
" transform="scale(0.015625)"/>
       <path id="DejaVuSans-73" d="M 2834 3397 
L 2834 2853 
Q 2591 2978 2328 3040 
Q 2066 3103 1784 3103 
Q 1356 3103 1142 2972 
Q 928 2841 928 2578 
Q 928 2378 1081 2264 
Q 1234 2150 1697 2047 
L 1894 2003 
Q 2506 1872 2764 1633 
Q 3022 1394 3022 966 
Q 3022 478 2636 193 
Q 2250 -91 1575 -91 
Q 1294 -91 989 -36 
Q 684 19 347 128 
L 347 722 
Q 666 556 975 473 
Q 1284 391 1588 391 
Q 1994 391 2212 530 
Q 2431 669 2431 922 
Q 2431 1156 2273 1281 
Q 2116 1406 1581 1522 
L 1381 1569 
Q 847 1681 609 1914 
Q 372 2147 372 2553 
Q 372 3047 722 3315 
Q 1072 3584 1716 3584 
Q 2034 3584 2315 3537 
Q 2597 3491 2834 3397 
z
" transform="scale(0.015625)"/>
       <path id="DejaVuSans-74" d="M 1172 4494 
L 1172 3500 
L 2356 3500 
L 2356 3053 
L 1172 3053 
L 1172 1153 
Q 1172 725 1289 603 
Q 1406 481 1766 481 
L 2356 481 
L 2356 0 
L 1766 0 
Q 1100 0 847 248 
Q 594 497 594 1153 
L 594 3053 
L 172 3053 
L 172 3500 
L 594 3500 
L 594 4494 
L 1172 4494 
z
" transform="scale(0.015625)"/>
      </defs>
      <use xlink:href="#DejaVuSans-47"/>
      <use xlink:href="#DejaVuSans-65" x="77.490234"/>
      <use xlink:href="#DejaVuSans-6e" x="139.013672"/>
      <use xlink:href="#DejaVuSans-6f" x="202.392578"/>
      <use xlink:href="#DejaVuSans-6d" x="263.574219"/>
      <use xlink:href="#DejaVuSans-69" x="360.986328"/>
      <use xlink:href="#DejaVuSans-63" x="388.769531"/>
      <use xlink:href="#DejaVuSans-20" x="443.75"/>
      <use xlink:href="#DejaVuSans-70" x="475.537109"/>
      <use xlink:href="#DejaVuSans-6f" x="539.013672"/>
      <use xlink:href="#DejaVuSans-73" x="600.195312"/>
      <use xlink:href="#DejaVuSans-69" x="652.294922"/>
      <use xlink:href="#DejaVuSans-74" x="680.078125"/>
      <use xlink:href="#DejaVuSans-69" x="719.287109"/>
      <use xlink:href="#DejaVuSans-6f" x="747.070312"/>
      <use xlink:href="#DejaVuSans-6e" x="808.251953"/>
     </g>
    </g>
    <g id="text_8">
     <!-- 1e6 -->
     <g transform="translate(703.494375 335.792812) scale(0.1 -0.1)">
      <defs>
       <path id="DejaVuSans-36" d="M 2113 2584 
Q 1688 2584 1439 2293 
Q 1191 2003 1191 1497 
Q 1191 994 1439 701 
Q 1688 409 2113 409 
Q 2538 409 2786 701 
Q 3034 994 3034 1497 
Q 3034 2003 2786 2293 
Q 2538 2584 2113 2584 
z
M 3366 4563 
L 3366 3988 
Q 3128 4100 2886 4159 
Q 2644 4219 2406 4219 
Q 1781 4219 1451 3797 
Q 1122 3375 1075 2522 
Q 1259 2794 1537 2939 
Q 1816 3084 2150 3084 
Q 2853 3084 3261 2657 
Q 3669 2231 3669 1497 
Q 3669 778 3244 343 
Q 2819 -91 2113 -91 
Q 1303 -91 875 529 
Q 447 1150 447 2328 
Q 447 3434 972 4092 
Q 1497 4750 2381 4750 
Q 2619 4750 2861 4703 
Q 3103 4656 3366 4563 
z
" transform="scale(0.015625)"/>
      </defs>
      <use xlink:href="#DejaVuSans-31"/>
      <use xlink:href="#DejaVuSans-65" x="63.623047"/>
      <use xlink:href="#DejaVuSans-36" x="125.146484"/>
     </g>
    </g>
   </g>
   <g id="matplotlib.axis_2">
    <g id="ytick_1">
     <g id="line2d_13">
      <path d="M 52.7725 157.980865 
L 722.3725 157.980865 
" clip-path="url(#pba3e39c6db)" style="fill: none; stroke: #b0b0b0; stroke-width: 0.8; stroke-linecap: square"/>
     </g>
     <g id="line2d_14">
      <defs>
       <path id="m1629bacc73" d="M 0 0 
L -3.5 0 
" style="stroke: #000000; stroke-width: 0.8"/>
      </defs>
      <g>
       <use xlink:href="#m1629bacc73" x="52.7725" y="157.980865" style="stroke: #000000; stroke-width: 0.8"/>
      </g>
     </g>
     <g id="text_9">
      <!-- 0 -->
      <g transform="translate(39.41 161.780084) scale(0.1 -0.1)">
       <use xlink:href="#DejaVuSans-30"/>
      </g>
     </g>
    </g>
    <g id="ytick_2">
     <g id="line2d_15">
      <path d="M 52.7725 183.070096 
L 722.3725 183.070096 
" clip-path="url(#pba3e39c6db)" style="fill: none; stroke: #b0b0b0; stroke-width: 0.8; stroke-linecap: square"/>
     </g>
     <g id="line2d_16">
      <g>
       <use xlink:href="#m1629bacc73" x="52.7725" y="183.070096" style="stroke: #000000; stroke-width: 0.8"/>
      </g>
     </g>
     <g id="text_10">
      <!-- 20 -->
      <g transform="translate(33.0475 186.869315) scale(0.1 -0.1)">
       <use xlink:href="#DejaVuSans-32"/>
       <use xlink:href="#DejaVuSans-30" x="63.623047"/>
      </g>
     </g>
    </g>
    <g id="ytick_3">
     <g id="line2d_17">
      <path d="M 52.7725 208.159327 
L 722.3725 208.159327 
" clip-path="url(#pba3e39c6db)" style="fill: none; stroke: #b0b0b0; stroke-width: 0.8; stroke-linecap: square"/>
     </g>
     <g id="line2d_18">
      <g>
       <use xlink:href="#m1629bacc73" x="52.7725" y="208.159327" style="stroke: #000000; stroke-width: 0.8"/>
      </g>
     </g>
     <g id="text_11">
      <!-- 40 -->
      <g transform="translate(33.0475 211.958546) scale(0.1 -0.1)">
       <use xlink:href="#DejaVuSans-34"/>
       <use xlink:href="#DejaVuSans-30" x="63.623047"/>
      </g>
     </g>
    </g>
    <g id="ytick_4">
     <g id="line2d_19">
      <path d="M 52.7725 233.248558 
L 722.3725 233.248558 
" clip-path="url(#pba3e39c6db)" style="fill: none; stroke: #b0b0b0; stroke-width: 0.8; stroke-linecap: square"/>
     </g>
     <g id="line2d_20">
      <g>
       <use xlink:href="#m1629bacc73" x="52.7725" y="233.248558" style="stroke: #000000; stroke-width: 0.8"/>
      </g>
     </g>
     <g id="text_12">
      <!-- 60 -->
      <g transform="translate(33.0475 237.047776) scale(0.1 -0.1)">
       <use xlink:href="#DejaVuSans-36"/>
       <use xlink:href="#DejaVuSans-30" x="63.623047"/>
      </g>
     </g>
    </g>
    <g id="ytick_5">
     <g id="line2d_21">
      <path d="M 52.7725 258.337788 
L 722.3725 258.337788 
" clip-path="url(#pba3e39c6db)" style="fill: none; stroke: #b0b0b0; stroke-width: 0.8; stroke-linecap: square"/>
     </g>
     <g id="line2d_22">
      <g>
       <use xlink:href="#m1629bacc73" x="52.7725" y="258.337788" style="stroke: #000000; stroke-width: 0.8"/>
      </g>
     </g>
     <g id="text_13">
      <!-- 80 -->
      <g transform="translate(33.0475 262.137007) scale(0.1 -0.1)">
       <defs>
        <path id="DejaVuSans-38" d="M 2034 2216 
Q 1584 2216 1326 1975 
Q 1069 1734 1069 1313 
Q 1069 891 1326 650 
Q 1584 409 2034 409 
Q 2484 409 2743 651 
Q 3003 894 3003 1313 
Q 3003 1734 2745 1975 
Q 2488 2216 2034 2216 
z
M 1403 2484 
Q 997 2584 770 2862 
Q 544 3141 544 3541 
Q 544 4100 942 4425 
Q 1341 4750 2034 4750 
Q 2731 4750 3128 4425 
Q 3525 4100 3525 3541 
Q 3525 3141 3298 2862 
Q 3072 2584 2669 2484 
Q 3125 2378 3379 2068 
Q 3634 1759 3634 1313 
Q 3634 634 3220 271 
Q 2806 -91 2034 -91 
Q 1263 -91 848 271 
Q 434 634 434 1313 
Q 434 1759 690 2068 
Q 947 2378 1403 2484 
z
M 1172 3481 
Q 1172 3119 1398 2916 
Q 1625 2713 2034 2713 
Q 2441 2713 2670 2916 
Q 2900 3119 2900 3481 
Q 2900 3844 2670 4047 
Q 2441 4250 2034 4250 
Q 1625 4250 1398 4047 
Q 1172 3844 1172 3481 
z
" transform="scale(0.015625)"/>
       </defs>
       <use xlink:href="#DejaVuSans-38"/>
       <use xlink:href="#DejaVuSans-30" x="63.623047"/>
      </g>
     </g>
    </g>
    <g id="ytick_6">
     <g id="line2d_23">
      <path d="M 52.7725 283.427019 
L 722.3725 283.427019 
" clip-path="url(#pba3e39c6db)" style="fill: none; stroke: #b0b0b0; stroke-width: 0.8; stroke-linecap: square"/>
     </g>
     <g id="line2d_24">
      <g>
       <use xlink:href="#m1629bacc73" x="52.7725" y="283.427019" style="stroke: #000000; stroke-width: 0.8"/>
      </g>
     </g>
     <g id="text_14">
      <!-- 100 -->
      <g transform="translate(26.685 287.226238) scale(0.1 -0.1)">
       <use xlink:href="#DejaVuSans-31"/>
       <use xlink:href="#DejaVuSans-30" x="63.623047"/>
       <use xlink:href="#DejaVuSans-30" x="127.246094"/>
      </g>
     </g>
    </g>
    <g id="ytick_7">
     <g id="line2d_25">
      <path d="M 52.7725 308.51625 
L 722.3725 308.51625 
" clip-path="url(#pba3e39c6db)" style="fill: none; stroke: #b0b0b0; stroke-width: 0.8; stroke-linecap: square"/>
     </g>
     <g id="line2d_26">
      <g>
       <use xlink:href="#m1629bacc73" x="52.7725" y="308.51625" style="stroke: #000000; stroke-width: 0.8"/>
      </g>
     </g>
     <g id="text_15">
      <!-- 120 -->
      <g transform="translate(26.685 312.315469) scale(0.1 -0.1)">
       <use xlink:href="#DejaVuSans-31"/>
       <use xlink:href="#DejaVuSans-32" x="63.623047"/>
       <use xlink:href="#DejaVuSans-30" x="127.246094"/>
      </g>
     </g>
    </g>
    <g id="text_16">
     <!-- Number of observations -->
     <g transform="translate(19.3575 323.39125) rotate(-90) scale(0.16 -0.16)">
      <defs>
       <path id="DejaVuSans-4e" d="M 628 4666 
L 1478 4666 
L 3547 763 
L 3547 4666 
L 4159 4666 
L 4159 0 
L 3309 0 
L 1241 3903 
L 1241 0 
L 628 0 
L 628 4666 
z
" transform="scale(0.015625)"/>
       <path id="DejaVuSans-75" d="M 544 1381 
L 544 3500 
L 1119 3500 
L 1119 1403 
Q 1119 906 1312 657 
Q 1506 409 1894 409 
Q 2359 409 2629 706 
Q 2900 1003 2900 1516 
L 2900 3500 
L 3475 3500 
L 3475 0 
L 2900 0 
L 2900 538 
Q 2691 219 2414 64 
Q 2138 -91 1772 -91 
Q 1169 -91 856 284 
Q 544 659 544 1381 
z
M 1991 3584 
L 1991 3584 
z
" transform="scale(0.015625)"/>
       <path id="DejaVuSans-62" d="M 3116 1747 
Q 3116 2381 2855 2742 
Q 2594 3103 2138 3103 
Q 1681 3103 1420 2742 
Q 1159 2381 1159 1747 
Q 1159 1113 1420 752 
Q 1681 391 2138 391 
Q 2594 391 2855 752 
Q 3116 1113 3116 1747 
z
M 1159 2969 
Q 1341 3281 1617 3432 
Q 1894 3584 2278 3584 
Q 2916 3584 3314 3078 
Q 3713 2572 3713 1747 
Q 3713 922 3314 415 
Q 2916 -91 2278 -91 
Q 1894 -91 1617 61 
Q 1341 213 1159 525 
L 1159 0 
L 581 0 
L 581 4863 
L 1159 4863 
L 1159 2969 
z
" transform="scale(0.015625)"/>
       <path id="DejaVuSans-72" d="M 2631 2963 
Q 2534 3019 2420 3045 
Q 2306 3072 2169 3072 
Q 1681 3072 1420 2755 
Q 1159 2438 1159 1844 
L 1159 0 
L 581 0 
L 581 3500 
L 1159 3500 
L 1159 2956 
Q 1341 3275 1631 3429 
Q 1922 3584 2338 3584 
Q 2397 3584 2469 3576 
Q 2541 3569 2628 3553 
L 2631 2963 
z
" transform="scale(0.015625)"/>
       <path id="DejaVuSans-66" d="M 2375 4863 
L 2375 4384 
L 1825 4384 
Q 1516 4384 1395 4259 
Q 1275 4134 1275 3809 
L 1275 3500 
L 2222 3500 
L 2222 3053 
L 1275 3053 
L 1275 0 
L 697 0 
L 697 3053 
L 147 3053 
L 147 3500 
L 697 3500 
L 697 3744 
Q 697 4328 969 4595 
Q 1241 4863 1831 4863 
L 2375 4863 
z
" transform="scale(0.015625)"/>
       <path id="DejaVuSans-76" d="M 191 3500 
L 800 3500 
L 1894 563 
L 2988 3500 
L 3597 3500 
L 2284 0 
L 1503 0 
L 191 3500 
z
" transform="scale(0.015625)"/>
       <path id="DejaVuSans-61" d="M 2194 1759 
Q 1497 1759 1228 1600 
Q 959 1441 959 1056 
Q 959 750 1161 570 
Q 1363 391 1709 391 
Q 2188 391 2477 730 
Q 2766 1069 2766 1631 
L 2766 1759 
L 2194 1759 
z
M 3341 1997 
L 3341 0 
L 2766 0 
L 2766 531 
Q 2569 213 2275 61 
Q 1981 -91 1556 -91 
Q 1019 -91 701 211 
Q 384 513 384 1019 
Q 384 1609 779 1909 
Q 1175 2209 1959 2209 
L 2766 2209 
L 2766 2266 
Q 2766 2663 2505 2880 
Q 2244 3097 1772 3097 
Q 1472 3097 1187 3025 
Q 903 2953 641 2809 
L 641 3341 
Q 956 3463 1253 3523 
Q 1550 3584 1831 3584 
Q 2591 3584 2966 3190 
Q 3341 2797 3341 1997 
z
" transform="scale(0.015625)"/>
      </defs>
      <use xlink:href="#DejaVuSans-4e"/>
      <use xlink:href="#DejaVuSans-75" x="74.804688"/>
      <use xlink:href="#DejaVuSans-6d" x="138.183594"/>
      <use xlink:href="#DejaVuSans-62" x="235.595703"/>
      <use xlink:href="#DejaVuSans-65" x="299.072266"/>
      <use xlink:href="#DejaVuSans-72" x="360.595703"/>
      <use xlink:href="#DejaVuSans-20" x="401.708984"/>
      <use xlink:href="#DejaVuSans-6f" x="433.496094"/>
      <use xlink:href="#DejaVuSans-66" x="494.677734"/>
      <use xlink:href="#DejaVuSans-20" x="529.882812"/>
      <use xlink:href="#DejaVuSans-6f" x="561.669922"/>
      <use xlink:href="#DejaVuSans-62" x="622.851562"/>
      <use xlink:href="#DejaVuSans-73" x="686.328125"/>
      <use xlink:href="#DejaVuSans-65" x="738.427734"/>
      <use xlink:href="#DejaVuSans-72" x="799.951172"/>
      <use xlink:href="#DejaVuSans-76" x="841.064453"/>
      <use xlink:href="#DejaVuSans-61" x="900.244141"/>
      <use xlink:href="#DejaVuSans-74" x="961.523438"/>
      <use xlink:href="#DejaVuSans-69" x="1000.732422"/>
      <use xlink:href="#DejaVuSans-6f" x="1028.515625"/>
      <use xlink:href="#DejaVuSans-6e" x="1089.697266"/>
      <use xlink:href="#DejaVuSans-73" x="1153.076172"/>
     </g>
    </g>
   </g>
   <g id="LineCollection_1">
    <path d="M 252.539174 186.708035 
L 259.972532 186.708035 
" clip-path="url(#pba3e39c6db)" style="fill: none; stroke: #0000ff; stroke-width: 2"/>
    <path d="M 260.004274 185.453573 
L 260.254086 185.453573 
" clip-path="url(#pba3e39c6db)" style="fill: none; stroke: #0000ff; stroke-width: 2"/>
    <path d="M 260.269127 186.708035 
L 267.724878 186.708035 
" clip-path="url(#pba3e39c6db)" style="fill: none; stroke: #0000ff; stroke-width: 2"/>
    <path d="M 267.727273 187.962496 
L 274.629587 187.962496 
" clip-path="url(#pba3e39c6db)" style="fill: none; stroke: #0000ff; stroke-width: 2"/>
    <path d="M 274.664046 189.216958 
L 276.318177 189.216958 
" clip-path="url(#pba3e39c6db)" style="fill: none; stroke: #0000ff; stroke-width: 2"/>
    <path d="M 276.319851 190.471419 
L 282.388963 190.471419 
" clip-path="url(#pba3e39c6db)" style="fill: none; stroke: #0000ff; stroke-width: 2"/>
    <path d="M 282.410854 191.725881 
L 283.00036 191.725881 
" clip-path="url(#pba3e39c6db)" style="fill: none; stroke: #0000ff; stroke-width: 2"/>
    <path d="M 283.019881 192.980342 
L 296.767606 192.980342 
" clip-path="url(#pba3e39c6db)" style="fill: none; stroke: #0000ff; stroke-width: 2"/>
    <path d="M 296.767696 195.489265 
L 297.030862 195.489265 
" clip-path="url(#pba3e39c6db)" style="fill: none; stroke: #0000ff; stroke-width: 2"/>
    <path d="M 297.141449 194.234804 
L 298.328547 194.234804 
" clip-path="url(#pba3e39c6db)" style="fill: none; stroke: #0000ff; stroke-width: 2"/>
    <path d="M 298.331238 195.489265 
L 298.807388 195.489265 
" clip-path="url(#pba3e39c6db)" style="fill: none; stroke: #0000ff; stroke-width: 2"/>
    <path d="M 298.826691 196.743727 
L 303.370815 196.743727 
" clip-path="url(#pba3e39c6db)" style="fill: none; stroke: #0000ff; stroke-width: 2"/>
    <path d="M 303.405647 195.489265 
L 306.499122 195.489265 
" clip-path="url(#pba3e39c6db)" style="fill: none; stroke: #0000ff; stroke-width: 2"/>
    <path d="M 306.599317 196.743727 
L 309.305312 196.743727 
" clip-path="url(#pba3e39c6db)" style="fill: none; stroke: #0000ff; stroke-width: 2"/>
    <path d="M 309.38918 195.489265 
L 309.694363 195.489265 
" clip-path="url(#pba3e39c6db)" style="fill: none; stroke: #0000ff; stroke-width: 2"/>
    <path d="M 309.733522 196.743727 
L 310.609796 196.743727 
" clip-path="url(#pba3e39c6db)" style="fill: none; stroke: #0000ff; stroke-width: 2"/>
    <path d="M 310.619377 197.998188 
L 311.965543 197.998188 
" clip-path="url(#pba3e39c6db)" style="fill: none; stroke: #0000ff; stroke-width: 2"/>
    <path d="M 312.288071 200.507112 
L 313.324599 200.507112 
" clip-path="url(#pba3e39c6db)" style="fill: none; stroke: #0000ff; stroke-width: 2"/>
    <path d="M 313.343503 201.761573 
L 316.40145 201.761573 
" clip-path="url(#pba3e39c6db)" style="fill: none; stroke: #0000ff; stroke-width: 2"/>
    <path d="M 316.419143 203.016035 
L 317.035574 203.016035 
" clip-path="url(#pba3e39c6db)" style="fill: none; stroke: #0000ff; stroke-width: 2"/>
    <path d="M 317.094834 201.761573 
L 320.281409 201.761573 
" clip-path="url(#pba3e39c6db)" style="fill: none; stroke: #0000ff; stroke-width: 2"/>
    <path d="M 320.294067 203.016035 
L 323.036194 203.016035 
" clip-path="url(#pba3e39c6db)" style="fill: none; stroke: #0000ff; stroke-width: 2"/>
    <path d="M 323.040083 204.270496 
L 323.330793 204.270496 
" clip-path="url(#pba3e39c6db)" style="fill: none; stroke: #0000ff; stroke-width: 2"/>
    <path d="M 323.359161 205.524958 
L 324.047806 205.524958 
" clip-path="url(#pba3e39c6db)" style="fill: none; stroke: #0000ff; stroke-width: 2"/>
    <path d="M 324.05239 205.524958 
L 324.533716 205.524958 
" clip-path="url(#pba3e39c6db)" style="fill: none; stroke: #0000ff; stroke-width: 2"/>
    <path d="M 324.539472 206.779419 
L 324.616412 206.779419 
" clip-path="url(#pba3e39c6db)" style="fill: none; stroke: #0000ff; stroke-width: 2"/>
    <path d="M 330.423132 209.288342 
L 332.380076 209.288342 
" clip-path="url(#pba3e39c6db)" style="fill: none; stroke: #0000ff; stroke-width: 2"/>
    <path d="M 332.707832 210.542804 
L 332.816037 210.542804 
" clip-path="url(#pba3e39c6db)" style="fill: none; stroke: #0000ff; stroke-width: 2"/>
    <path d="M 332.853097 211.797265 
L 333.446839 211.797265 
" clip-path="url(#pba3e39c6db)" style="fill: none; stroke: #0000ff; stroke-width: 2"/>
    <path d="M 333.450754 213.051727 
L 336.080814 213.051727 
" clip-path="url(#pba3e39c6db)" style="fill: none; stroke: #0000ff; stroke-width: 2"/>
    <path d="M 336.101803 214.306188 
L 336.145314 214.306188 
" clip-path="url(#pba3e39c6db)" style="fill: none; stroke: #0000ff; stroke-width: 2"/>
    <path d="M 336.163844 215.56065 
L 336.755088 215.56065 
" clip-path="url(#pba3e39c6db)" style="fill: none; stroke: #0000ff; stroke-width: 2"/>
    <path d="M 336.760342 216.815112 
L 337.484656 216.815112 
" clip-path="url(#pba3e39c6db)" style="fill: none; stroke: #0000ff; stroke-width: 2"/>
    <path d="M 337.48951 218.069573 
L 337.733863 218.069573 
" clip-path="url(#pba3e39c6db)" style="fill: none; stroke: #0000ff; stroke-width: 2"/>
    <path d="M 337.736438 219.324035 
L 339.015413 219.324035 
" clip-path="url(#pba3e39c6db)" style="fill: none; stroke: #0000ff; stroke-width: 2"/>
    <path d="M 339.015877 220.578496 
L 340.6356 220.578496 
" clip-path="url(#pba3e39c6db)" style="fill: none; stroke: #0000ff; stroke-width: 2"/>
    <path d="M 340.638189 221.832958 
L 340.960485 221.832958 
" clip-path="url(#pba3e39c6db)" style="fill: none; stroke: #0000ff; stroke-width: 2"/>
    <path d="M 340.982788 223.087419 
L 340.996824 223.087419 
" clip-path="url(#pba3e39c6db)" style="fill: none; stroke: #0000ff; stroke-width: 2"/>
    <path d="M 341.039794 225.596342 
L 341.514463 225.596342 
" clip-path="url(#pba3e39c6db)" style="fill: none; stroke: #0000ff; stroke-width: 2"/>
    <path d="M 341.519253 226.850804 
L 341.628566 226.850804 
" clip-path="url(#pba3e39c6db)" style="fill: none; stroke: #0000ff; stroke-width: 2"/>
    <path d="M 341.675592 228.105265 
L 341.779741 228.105265 
" clip-path="url(#pba3e39c6db)" style="fill: none; stroke: #0000ff; stroke-width: 2"/>
    <path d="M 341.78699 229.359727 
L 341.918013 229.359727 
" clip-path="url(#pba3e39c6db)" style="fill: none; stroke: #0000ff; stroke-width: 2"/>
    <path d="M 341.919314 229.359727 
L 342.636417 229.359727 
" clip-path="url(#pba3e39c6db)" style="fill: none; stroke: #0000ff; stroke-width: 2"/>
    <path d="M 342.65908 230.614188 
L 342.799026 230.614188 
" clip-path="url(#pba3e39c6db)" style="fill: none; stroke: #0000ff; stroke-width: 2"/>
    <path d="M 342.802349 231.86865 
L 343.344454 231.86865 
" clip-path="url(#pba3e39c6db)" style="fill: none; stroke: #0000ff; stroke-width: 2"/>
    <path d="M 343.351794 233.123112 
L 343.548528 233.123112 
" clip-path="url(#pba3e39c6db)" style="fill: none; stroke: #0000ff; stroke-width: 2"/>
    <path d="M 343.55073 234.377573 
L 344.096788 234.377573 
" clip-path="url(#pba3e39c6db)" style="fill: none; stroke: #0000ff; stroke-width: 2"/>
    <path d="M 344.170457 235.632035 
L 344.843959 235.632035 
" clip-path="url(#pba3e39c6db)" style="fill: none; stroke: #0000ff; stroke-width: 2"/>
    <path d="M 344.86066 236.886496 
L 345.012209 236.886496 
" clip-path="url(#pba3e39c6db)" style="fill: none; stroke: #0000ff; stroke-width: 2"/>
    <path d="M 345.033984 238.140958 
L 345.169101 238.140958 
" clip-path="url(#pba3e39c6db)" style="fill: none; stroke: #0000ff; stroke-width: 2"/>
    <path d="M 345.181643 239.395419 
L 345.264223 239.395419 
" clip-path="url(#pba3e39c6db)" style="fill: none; stroke: #0000ff; stroke-width: 2"/>
    <path d="M 345.286436 240.649881 
L 346.107971 240.649881 
" clip-path="url(#pba3e39c6db)" style="fill: none; stroke: #0000ff; stroke-width: 2"/>
    <path d="M 346.191259 241.904342 
L 347.06546 241.904342 
" clip-path="url(#pba3e39c6db)" style="fill: none; stroke: #0000ff; stroke-width: 2"/>
    <path d="M 347.099417 243.158804 
L 348.121934 243.158804 
" clip-path="url(#pba3e39c6db)" style="fill: none; stroke: #0000ff; stroke-width: 2"/>
    <path d="M 348.122939 244.413265 
L 348.134052 244.413265 
" clip-path="url(#pba3e39c6db)" style="fill: none; stroke: #0000ff; stroke-width: 2"/>
    <path d="M 348.180421 245.667727 
L 348.482488 245.667727 
" clip-path="url(#pba3e39c6db)" style="fill: none; stroke: #0000ff; stroke-width: 2"/>
    <path d="M 348.48639 246.922188 
L 348.666924 246.922188 
" clip-path="url(#pba3e39c6db)" style="fill: none; stroke: #0000ff; stroke-width: 2"/>
    <path d="M 348.701216 248.17665 
L 348.709534 248.17665 
" clip-path="url(#pba3e39c6db)" style="fill: none; stroke: #0000ff; stroke-width: 2"/>
    <path d="M 348.718496 249.431112 
L 351.245502 249.431112 
" clip-path="url(#pba3e39c6db)" style="fill: none; stroke: #0000ff; stroke-width: 2"/>
    <path d="M 351.386337 250.685573 
L 351.437214 250.685573 
" clip-path="url(#pba3e39c6db)" style="fill: none; stroke: #0000ff; stroke-width: 2"/>
    <path d="M 351.452164 250.685573 
L 351.480081 250.685573 
" clip-path="url(#pba3e39c6db)" style="fill: none; stroke: #0000ff; stroke-width: 2"/>
    <path d="M 351.481176 251.940035 
L 351.577804 251.940035 
" clip-path="url(#pba3e39c6db)" style="fill: none; stroke: #0000ff; stroke-width: 2"/>
    <path d="M 351.668226 253.194496 
L 351.727962 253.194496 
" clip-path="url(#pba3e39c6db)" style="fill: none; stroke: #0000ff; stroke-width: 2"/>
    <path d="M 351.823998 254.448958 
L 351.93313 254.448958 
" clip-path="url(#pba3e39c6db)" style="fill: none; stroke: #0000ff; stroke-width: 2"/>
    <path d="M 352.01674 253.194496 
L 352.259882 253.194496 
" clip-path="url(#pba3e39c6db)" style="fill: none; stroke: #0000ff; stroke-width: 2"/>
    <path d="M 352.290156 254.448958 
L 352.613997 254.448958 
" clip-path="url(#pba3e39c6db)" style="fill: none; stroke: #0000ff; stroke-width: 2"/>
    <path d="M 352.617268 255.703419 
L 352.69735 255.703419 
" clip-path="url(#pba3e39c6db)" style="fill: none; stroke: #0000ff; stroke-width: 2"/>
    <path d="M 352.729503 256.957881 
L 352.933899 256.957881 
" clip-path="url(#pba3e39c6db)" style="fill: none; stroke: #0000ff; stroke-width: 2"/>
    <path d="M 353.008521 258.212342 
L 353.091242 258.212342 
" clip-path="url(#pba3e39c6db)" style="fill: none; stroke: #0000ff; stroke-width: 2"/>
    <path d="M 353.103153 259.466804 
L 353.260844 259.466804 
" clip-path="url(#pba3e39c6db)" style="fill: none; stroke: #0000ff; stroke-width: 2"/>
    <path d="M 353.288542 260.721265 
L 353.324301 260.721265 
" clip-path="url(#pba3e39c6db)" style="fill: none; stroke: #0000ff; stroke-width: 2"/>
    <path d="M 353.402876 261.975727 
L 353.815723 261.975727 
" clip-path="url(#pba3e39c6db)" style="fill: none; stroke: #0000ff; stroke-width: 2"/>
    <path d="M 353.964851 264.48465 
L 354.410174 264.48465 
" clip-path="url(#pba3e39c6db)" style="fill: none; stroke: #0000ff; stroke-width: 2"/>
    <path d="M 354.510202 266.993573 
L 355.161233 266.993573 
" clip-path="url(#pba3e39c6db)" style="fill: none; stroke: #0000ff; stroke-width: 2"/>
    <path d="M 355.178823 268.248035 
L 355.525212 268.248035 
" clip-path="url(#pba3e39c6db)" style="fill: none; stroke: #0000ff; stroke-width: 2"/>
    <path d="M 355.531857 270.756958 
L 355.581214 270.756958 
" clip-path="url(#pba3e39c6db)" style="fill: none; stroke: #0000ff; stroke-width: 2"/>
    <path d="M 355.592391 272.011419 
L 355.601353 272.011419 
" clip-path="url(#pba3e39c6db)" style="fill: none; stroke: #0000ff; stroke-width: 2"/>
    <path d="M 355.690925 273.265881 
L 355.878413 273.265881 
" clip-path="url(#pba3e39c6db)" style="fill: none; stroke: #0000ff; stroke-width: 2"/>
    <path d="M 355.91922 275.774804 
L 356.109773 275.774804 
" clip-path="url(#pba3e39c6db)" style="fill: none; stroke: #0000ff; stroke-width: 2"/>
    <path d="M 356.110636 277.029265 
L 356.594422 277.029265 
" clip-path="url(#pba3e39c6db)" style="fill: none; stroke: #0000ff; stroke-width: 2"/>
    <path d="M 356.611535 278.283727 
L 356.776811 278.283727 
" clip-path="url(#pba3e39c6db)" style="fill: none; stroke: #0000ff; stroke-width: 2"/>
    <path d="M 356.793319 279.538188 
L 357.501627 279.538188 
" clip-path="url(#pba3e39c6db)" style="fill: none; stroke: #0000ff; stroke-width: 2"/>
    <path d="M 357.517169 282.047112 
L 357.731879 282.047112 
" clip-path="url(#pba3e39c6db)" style="fill: none; stroke: #0000ff; stroke-width: 2"/>
    <path d="M 357.794087 284.556035 
L 358.170789 284.556035 
" clip-path="url(#pba3e39c6db)" style="fill: none; stroke: #0000ff; stroke-width: 2"/>
    <path d="M 358.267263 287.064958 
L 358.267353 287.064958 
" clip-path="url(#pba3e39c6db)" style="fill: none; stroke: #0000ff; stroke-width: 2"/>
    <path d="M 358.337893 289.573881 
L 358.634513 289.573881 
" clip-path="url(#pba3e39c6db)" style="fill: none; stroke: #0000ff; stroke-width: 2"/>
    <path d="M 358.658605 293.337265 
L 358.673916 293.337265 
" clip-path="url(#pba3e39c6db)" style="fill: none; stroke: #0000ff; stroke-width: 2"/>
    <path d="M 358.688995 294.591727 
L 358.753186 294.591727 
" clip-path="url(#pba3e39c6db)" style="fill: none; stroke: #0000ff; stroke-width: 2"/>
    <path d="M 358.800483 295.846188 
L 359.083698 295.846188 
" clip-path="url(#pba3e39c6db)" style="fill: none; stroke: #0000ff; stroke-width: 2"/>
    <path d="M 359.126154 297.10065 
L 359.131317 297.10065 
" clip-path="url(#pba3e39c6db)" style="fill: none; stroke: #0000ff; stroke-width: 2"/>
    <path d="M 359.147607 298.355112 
L 359.17515 298.355112 
" clip-path="url(#pba3e39c6db)" style="fill: none; stroke: #0000ff; stroke-width: 2"/>
    <path d="M 359.180868 297.10065 
L 359.400162 297.10065 
" clip-path="url(#pba3e39c6db)" style="fill: none; stroke: #0000ff; stroke-width: 2"/>
    <path d="M 359.402827 298.355112 
L 359.450304 298.355112 
" clip-path="url(#pba3e39c6db)" style="fill: none; stroke: #0000ff; stroke-width: 2"/>
    <path d="M 359.45427 299.609573 
L 359.507993 299.609573 
" clip-path="url(#pba3e39c6db)" style="fill: none; stroke: #0000ff; stroke-width: 2"/>
    <path d="M 359.519853 298.355112 
L 359.619494 298.355112 
" clip-path="url(#pba3e39c6db)" style="fill: none; stroke: #0000ff; stroke-width: 2"/>
    <path d="M 359.645119 297.10065 
L 359.846489 297.10065 
" clip-path="url(#pba3e39c6db)" style="fill: none; stroke: #0000ff; stroke-width: 2"/>
    <path d="M 359.872011 295.846188 
L 359.927665 295.846188 
" clip-path="url(#pba3e39c6db)" style="fill: none; stroke: #0000ff; stroke-width: 2"/>
    <path d="M 360.018357 294.591727 
L 360.037466 294.591727 
" clip-path="url(#pba3e39c6db)" style="fill: none; stroke: #0000ff; stroke-width: 2"/>
    <path d="M 360.041265 293.337265 
L 360.292481 293.337265 
" clip-path="url(#pba3e39c6db)" style="fill: none; stroke: #0000ff; stroke-width: 2"/>
    <path d="M 360.30331 292.082804 
L 360.699765 292.082804 
" clip-path="url(#pba3e39c6db)" style="fill: none; stroke: #0000ff; stroke-width: 2"/>
    <path d="M 360.720342 290.828342 
L 360.890614 290.828342 
" clip-path="url(#pba3e39c6db)" style="fill: none; stroke: #0000ff; stroke-width: 2"/>
    <path d="M 361.235419 289.573881 
L 361.432539 289.573881 
" clip-path="url(#pba3e39c6db)" style="fill: none; stroke: #0000ff; stroke-width: 2"/>
    <path d="M 361.755969 287.064958 
L 361.784685 287.064958 
" clip-path="url(#pba3e39c6db)" style="fill: none; stroke: #0000ff; stroke-width: 2"/>
    <path d="M 361.791084 285.810496 
L 361.791793 285.810496 
" clip-path="url(#pba3e39c6db)" style="fill: none; stroke: #0000ff; stroke-width: 2"/>
    <path d="M 361.883772 283.301573 
L 362.187784 283.301573 
" clip-path="url(#pba3e39c6db)" style="fill: none; stroke: #0000ff; stroke-width: 2"/>
    <path d="M 362.223376 282.047112 
L 362.689301 282.047112 
" clip-path="url(#pba3e39c6db)" style="fill: none; stroke: #0000ff; stroke-width: 2"/>
    <path d="M 362.801433 279.538188 
L 363.754455 279.538188 
" clip-path="url(#pba3e39c6db)" style="fill: none; stroke: #0000ff; stroke-width: 2"/>
    <path d="M 363.885902 277.029265 
L 364.341385 277.029265 
" clip-path="url(#pba3e39c6db)" style="fill: none; stroke: #0000ff; stroke-width: 2"/>
    <path d="M 364.512725 274.520342 
L 364.668356 274.520342 
" clip-path="url(#pba3e39c6db)" style="fill: none; stroke: #0000ff; stroke-width: 2"/>
    <path d="M 364.682005 272.011419 
L 364.743892 272.011419 
" clip-path="url(#pba3e39c6db)" style="fill: none; stroke: #0000ff; stroke-width: 2"/>
    <path d="M 364.908587 268.248035 
L 364.908626 268.248035 
" clip-path="url(#pba3e39c6db)" style="fill: none; stroke: #0000ff; stroke-width: 2"/>
    <path d="M 364.920112 266.993573 
L 365.266553 266.993573 
" clip-path="url(#pba3e39c6db)" style="fill: none; stroke: #0000ff; stroke-width: 2"/>
    <path d="M 365.340454 260.721265 
L 365.437803 260.721265 
" clip-path="url(#pba3e39c6db)" style="fill: none; stroke: #0000ff; stroke-width: 2"/>
    <path d="M 365.496445 256.957881 
L 365.805993 256.957881 
" clip-path="url(#pba3e39c6db)" style="fill: none; stroke: #0000ff; stroke-width: 2"/>
    <path d="M 365.814749 255.703419 
L 365.979407 255.703419 
" clip-path="url(#pba3e39c6db)" style="fill: none; stroke: #0000ff; stroke-width: 2"/>
    <path d="M 366.077696 254.448958 
L 366.127517 254.448958 
" clip-path="url(#pba3e39c6db)" style="fill: none; stroke: #0000ff; stroke-width: 2"/>
    <path d="M 366.221274 253.194496 
L 366.785438 253.194496 
" clip-path="url(#pba3e39c6db)" style="fill: none; stroke: #0000ff; stroke-width: 2"/>
    <path d="M 366.942691 251.940035 
L 366.973569 251.940035 
" clip-path="url(#pba3e39c6db)" style="fill: none; stroke: #0000ff; stroke-width: 2"/>
    <path d="M 367.108957 248.17665 
L 367.137145 248.17665 
" clip-path="url(#pba3e39c6db)" style="fill: none; stroke: #0000ff; stroke-width: 2"/>
    <path d="M 367.143532 246.922188 
L 367.180721 246.922188 
" clip-path="url(#pba3e39c6db)" style="fill: none; stroke: #0000ff; stroke-width: 2"/>
    <path d="M 367.364796 245.667727 
L 367.485221 245.667727 
" clip-path="url(#pba3e39c6db)" style="fill: none; stroke: #0000ff; stroke-width: 2"/>
    <path d="M 367.537939 244.413265 
L 367.634362 244.413265 
" clip-path="url(#pba3e39c6db)" style="fill: none; stroke: #0000ff; stroke-width: 2"/>
    <path d="M 367.645359 243.158804 
L 367.746687 243.158804 
" clip-path="url(#pba3e39c6db)" style="fill: none; stroke: #0000ff; stroke-width: 2"/>
    <path d="M 367.829215 241.904342 
L 367.857235 241.904342 
" clip-path="url(#pba3e39c6db)" style="fill: none; stroke: #0000ff; stroke-width: 2"/>
    <path d="M 367.895454 240.649881 
L 367.92435 240.649881 
" clip-path="url(#pba3e39c6db)" style="fill: none; stroke: #0000ff; stroke-width: 2"/>
    <path d="M 367.936609 239.395419 
L 367.988696 239.395419 
" clip-path="url(#pba3e39c6db)" style="fill: none; stroke: #0000ff; stroke-width: 2"/>
    <path d="M 368.010291 238.140958 
L 368.142755 238.140958 
" clip-path="url(#pba3e39c6db)" style="fill: none; stroke: #0000ff; stroke-width: 2"/>
    <path d="M 368.151679 236.886496 
L 368.309615 236.886496 
" clip-path="url(#pba3e39c6db)" style="fill: none; stroke: #0000ff; stroke-width: 2"/>
    <path d="M 368.332149 235.632035 
L 369.931463 235.632035 
" clip-path="url(#pba3e39c6db)" style="fill: none; stroke: #0000ff; stroke-width: 2"/>
    <path d="M 369.945666 234.377573 
L 369.946877 234.377573 
" clip-path="url(#pba3e39c6db)" style="fill: none; stroke: #0000ff; stroke-width: 2"/>
    <path d="M 369.948538 233.123112 
L 370.348933 233.123112 
" clip-path="url(#pba3e39c6db)" style="fill: none; stroke: #0000ff; stroke-width: 2"/>
    <path d="M 370.392972 234.377573 
L 371.674728 234.377573 
" clip-path="url(#pba3e39c6db)" style="fill: none; stroke: #0000ff; stroke-width: 2"/>
    <path d="M 371.674818 233.123112 
L 377.038507 233.123112 
" clip-path="url(#pba3e39c6db)" style="fill: none; stroke: #0000ff; stroke-width: 2"/>
    <path d="M 377.046105 231.86865 
L 377.119902 231.86865 
" clip-path="url(#pba3e39c6db)" style="fill: none; stroke: #0000ff; stroke-width: 2"/>
    <path d="M 377.120469 233.123112 
L 377.900128 233.123112 
" clip-path="url(#pba3e39c6db)" style="fill: none; stroke: #0000ff; stroke-width: 2"/>
    <path d="M 377.921581 234.377573 
L 378.117722 234.377573 
" clip-path="url(#pba3e39c6db)" style="fill: none; stroke: #0000ff; stroke-width: 2"/>
    <path d="M 378.144699 235.632035 
L 378.150224 235.632035 
" clip-path="url(#pba3e39c6db)" style="fill: none; stroke: #0000ff; stroke-width: 2"/>
    <path d="M 378.150932 235.632035 
L 378.203598 235.632035 
" clip-path="url(#pba3e39c6db)" style="fill: none; stroke: #0000ff; stroke-width: 2"/>
    <path d="M 378.20732 234.377573 
L 378.21323 234.377573 
" clip-path="url(#pba3e39c6db)" style="fill: none; stroke: #0000ff; stroke-width: 2"/>
    <path d="M 378.297227 231.86865 
L 379.309275 231.86865 
" clip-path="url(#pba3e39c6db)" style="fill: none; stroke: #0000ff; stroke-width: 2"/>
    <path d="M 379.371664 231.86865 
L 381.001883 231.86865 
" clip-path="url(#pba3e39c6db)" style="fill: none; stroke: #0000ff; stroke-width: 2"/>
    <path d="M 381.014206 231.86865 
L 381.426435 231.86865 
" clip-path="url(#pba3e39c6db)" style="fill: none; stroke: #0000ff; stroke-width: 2"/>
    <path d="M 381.426692 230.614188 
L 381.426885 230.614188 
" clip-path="url(#pba3e39c6db)" style="fill: none; stroke: #0000ff; stroke-width: 2"/>
    <path d="M 381.463932 229.359727 
L 381.47923 229.359727 
" clip-path="url(#pba3e39c6db)" style="fill: none; stroke: #0000ff; stroke-width: 2"/>
    <path d="M 381.482282 229.359727 
L 387.10593 229.359727 
" clip-path="url(#pba3e39c6db)" style="fill: none; stroke: #0000ff; stroke-width: 2"/>
    <path d="M 387.229871 228.105265 
L 389.562925 228.105265 
" clip-path="url(#pba3e39c6db)" style="fill: none; stroke: #0000ff; stroke-width: 2"/>
    <path d="M 389.852707 225.596342 
L 392.479367 225.596342 
" clip-path="url(#pba3e39c6db)" style="fill: none; stroke: #0000ff; stroke-width: 2"/>
    <path d="M 392.484711 226.850804 
L 392.675238 226.850804 
" clip-path="url(#pba3e39c6db)" style="fill: none; stroke: #0000ff; stroke-width: 2"/>
    <path d="M 392.678033 228.105265 
L 396.475888 228.105265 
" clip-path="url(#pba3e39c6db)" style="fill: none; stroke: #0000ff; stroke-width: 2"/>
    <path d="M 396.47621 226.850804 
L 400.939879 226.850804 
" clip-path="url(#pba3e39c6db)" style="fill: none; stroke: #0000ff; stroke-width: 2"/>
    <path d="M 400.993267 225.596342 
L 402.033104 225.596342 
" clip-path="url(#pba3e39c6db)" style="fill: none; stroke: #0000ff; stroke-width: 2"/>
    <path d="M 402.041719 224.341881 
L 408.430308 224.341881 
" clip-path="url(#pba3e39c6db)" style="fill: none; stroke: #0000ff; stroke-width: 2"/>
    <path d="M 408.431635 225.596342 
L 412.252102 225.596342 
" clip-path="url(#pba3e39c6db)" style="fill: none; stroke: #0000ff; stroke-width: 2"/>
    <path d="M 412.265223 226.850804 
L 413.531476 226.850804 
" clip-path="url(#pba3e39c6db)" style="fill: none; stroke: #0000ff; stroke-width: 2"/>
    <path d="M 413.544224 225.596342 
L 413.954173 225.596342 
" clip-path="url(#pba3e39c6db)" style="fill: none; stroke: #0000ff; stroke-width: 2"/>
    <path d="M 414.081797 226.850804 
L 415.187113 226.850804 
" clip-path="url(#pba3e39c6db)" style="fill: none; stroke: #0000ff; stroke-width: 2"/>
    <path d="M 415.248562 228.105265 
L 417.638673 228.105265 
" clip-path="url(#pba3e39c6db)" style="fill: none; stroke: #0000ff; stroke-width: 2"/>
    <path d="M 417.934289 229.359727 
L 421.01638 229.359727 
" clip-path="url(#pba3e39c6db)" style="fill: none; stroke: #0000ff; stroke-width: 2"/>
    <path d="M 421.212547 231.86865 
L 422.808925 231.86865 
" clip-path="url(#pba3e39c6db)" style="fill: none; stroke: #0000ff; stroke-width: 2"/>
    <path d="M 422.817218 230.614188 
L 423.894875 230.614188 
" clip-path="url(#pba3e39c6db)" style="fill: none; stroke: #0000ff; stroke-width: 2"/>
    <path d="M 423.964075 231.86865 
L 424.279676 231.86865 
" clip-path="url(#pba3e39c6db)" style="fill: none; stroke: #0000ff; stroke-width: 2"/>
    <path d="M 424.310542 230.614188 
L 424.755002 230.614188 
" clip-path="url(#pba3e39c6db)" style="fill: none; stroke: #0000ff; stroke-width: 2"/>
    <path d="M 424.758079 229.359727 
L 426.681093 229.359727 
" clip-path="url(#pba3e39c6db)" style="fill: none; stroke: #0000ff; stroke-width: 2"/>
    <path d="M 426.694099 228.105265 
L 427.845991 228.105265 
" clip-path="url(#pba3e39c6db)" style="fill: none; stroke: #0000ff; stroke-width: 2"/>
    <path d="M 427.866169 229.359727 
L 428.352492 229.359727 
" clip-path="url(#pba3e39c6db)" style="fill: none; stroke: #0000ff; stroke-width: 2"/>
    <path d="M 428.372593 228.105265 
L 428.500989 228.105265 
" clip-path="url(#pba3e39c6db)" style="fill: none; stroke: #0000ff; stroke-width: 2"/>
    <path d="M 428.535885 226.850804 
L 432.554322 226.850804 
" clip-path="url(#pba3e39c6db)" style="fill: none; stroke: #0000ff; stroke-width: 2"/>
    <path d="M 432.589399 225.596342 
L 434.461575 225.596342 
" clip-path="url(#pba3e39c6db)" style="fill: none; stroke: #0000ff; stroke-width: 2"/>
    <path d="M 434.469108 226.850804 
L 441.141942 226.850804 
" clip-path="url(#pba3e39c6db)" style="fill: none; stroke: #0000ff; stroke-width: 2"/>
    <path d="M 441.226196 225.596342 
L 442.284447 225.596342 
" clip-path="url(#pba3e39c6db)" style="fill: none; stroke: #0000ff; stroke-width: 2"/>
    <path d="M 442.301187 224.341881 
L 454.523048 224.341881 
" clip-path="url(#pba3e39c6db)" style="fill: none; stroke: #0000ff; stroke-width: 2"/>
    <path d="M 454.541025 223.087419 
L 458.902425 223.087419 
" clip-path="url(#pba3e39c6db)" style="fill: none; stroke: #0000ff; stroke-width: 2"/>
    <path d="M 458.920672 224.341881 
L 458.961994 224.341881 
" clip-path="url(#pba3e39c6db)" style="fill: none; stroke: #0000ff; stroke-width: 2"/>
    <path d="M 458.975631 223.087419 
L 462.457293 223.087419 
" clip-path="url(#pba3e39c6db)" style="fill: none; stroke: #0000ff; stroke-width: 2"/>
    <path d="M 462.480987 221.832958 
L 470.463597 221.832958 
" clip-path="url(#pba3e39c6db)" style="fill: none; stroke: #0000ff; stroke-width: 2"/>
    <path d="M 470.496112 220.578496 
L 471.652871 220.578496 
" clip-path="url(#pba3e39c6db)" style="fill: none; stroke: #0000ff; stroke-width: 2"/>
    <path d="M 471.660675 221.832958 
L 477.910052 221.832958 
" clip-path="url(#pba3e39c6db)" style="fill: none; stroke: #0000ff; stroke-width: 2"/>
    <path d="M 477.931299 220.578496 
L 477.989386 220.578496 
" clip-path="url(#pba3e39c6db)" style="fill: none; stroke: #0000ff; stroke-width: 2"/>
    <path d="M 478.00171 219.324035 
L 497.552948 219.324035 
" clip-path="url(#pba3e39c6db)" style="fill: none; stroke: #0000ff; stroke-width: 2"/>
    <path d="M 497.5637 218.069573 
L 507.09234 218.069573 
" clip-path="url(#pba3e39c6db)" style="fill: none; stroke: #0000ff; stroke-width: 2"/>
    <path d="M 507.114359 216.815112 
L 507.746037 216.815112 
" clip-path="url(#pba3e39c6db)" style="fill: none; stroke: #0000ff; stroke-width: 2"/>
    <path d="M 507.762197 215.56065 
L 525.913482 215.56065 
" clip-path="url(#pba3e39c6db)" style="fill: none; stroke: #0000ff; stroke-width: 2"/>
    <path d="M 526.092716 214.306188 
L 542.568392 214.306188 
" clip-path="url(#pba3e39c6db)" style="fill: none; stroke: #0000ff; stroke-width: 2"/>
    <path d="M 542.682507 214.306188 
L 553.524387 214.306188 
" clip-path="url(#pba3e39c6db)" style="fill: none; stroke: #0000ff; stroke-width: 2"/>
    <path d="M 553.536028 214.306188 
L 553.74663 214.306188 
" clip-path="url(#pba3e39c6db)" style="fill: none; stroke: #0000ff; stroke-width: 2"/>
    <path d="M 553.747956 214.306188 
L 570.883394 214.306188 
" clip-path="url(#pba3e39c6db)" style="fill: none; stroke: #0000ff; stroke-width: 2"/>
    <path d="M 570.884965 214.306188 
L 576.589879 214.306188 
" clip-path="url(#pba3e39c6db)" style="fill: none; stroke: #0000ff; stroke-width: 2"/>
    <path d="M 576.637524 215.56065 
L 589.00152 215.56065 
" clip-path="url(#pba3e39c6db)" style="fill: none; stroke: #0000ff; stroke-width: 2"/>
    <path d="M 589.261712 214.306188 
L 595.100765 214.306188 
" clip-path="url(#pba3e39c6db)" style="fill: none; stroke: #0000ff; stroke-width: 2"/>
    <path d="M 595.104834 215.56065 
L 595.153161 215.56065 
" clip-path="url(#pba3e39c6db)" style="fill: none; stroke: #0000ff; stroke-width: 2"/>
    <path d="M 595.16739 215.56065 
L 595.478857 215.56065 
" clip-path="url(#pba3e39c6db)" style="fill: none; stroke: #0000ff; stroke-width: 2"/>
    <path d="M 595.485257 216.815112 
L 598.377105 216.815112 
" clip-path="url(#pba3e39c6db)" style="fill: none; stroke: #0000ff; stroke-width: 2"/>
    <path d="M 598.41562 218.069573 
L 599.679786 218.069573 
" clip-path="url(#pba3e39c6db)" style="fill: none; stroke: #0000ff; stroke-width: 2"/>
    <path d="M 599.685851 216.815112 
L 608.850306 216.815112 
" clip-path="url(#pba3e39c6db)" style="fill: none; stroke: #0000ff; stroke-width: 2"/>
    <path d="M 608.924773 215.56065 
L 611.936814 215.56065 
" clip-path="url(#pba3e39c6db)" style="fill: none; stroke: #0000ff; stroke-width: 2"/>
    <path d="M 611.962208 216.815112 
L 669.832078 216.815112 
" clip-path="url(#pba3e39c6db)" style="fill: none; stroke: #0000ff; stroke-width: 2"/>
    <path d="M 669.842174 215.56065 
L 674.213838 215.56065 
" clip-path="url(#pba3e39c6db)" style="fill: none; stroke: #0000ff; stroke-width: 2"/>
    <path d="M 674.246996 214.306188 
L 675.218006 214.306188 
" clip-path="url(#pba3e39c6db)" style="fill: none; stroke: #0000ff; stroke-width: 2"/>
    <path d="M 675.277098 215.56065 
L 676.360769 215.56065 
" clip-path="url(#pba3e39c6db)" style="fill: none; stroke: #0000ff; stroke-width: 2"/>
    <path d="M 676.367993 214.306188 
L 696.858319 214.306188 
" clip-path="url(#pba3e39c6db)" style="fill: none; stroke: #0000ff; stroke-width: 2"/>
    <path d="M 696.870926 215.56065 
L 706.375962 215.56065 
" clip-path="url(#pba3e39c6db)" style="fill: none; stroke: #0000ff; stroke-width: 2"/>
   </g>
   <g id="LineCollection_2">
    <path d="M 359.074981 308.51625 
L 359.074981 157.980865 
" clip-path="url(#pba3e39c6db)" style="fill: none; stroke: #000000"/>
   </g>
   <g id="LineCollection_3">
    <path d="M 359.732708 308.51625 
L 359.732708 157.980865 
" clip-path="url(#pba3e39c6db)" style="fill: none; stroke: #000000"/>
   </g>
   <g id="patch_3">
    <path d="M 52.7725 308.51625 
L 52.7725 145.43625 
" style="fill: none; stroke: #000000; stroke-width: 0.8; stroke-linejoin: miter; stroke-linecap: square"/>
   </g>
   <g id="patch_4">
    <path d="M 722.3725 308.51625 
L 722.3725 145.43625 
" style="fill: none; stroke: #000000; stroke-width: 0.8; stroke-linejoin: miter; stroke-linecap: square"/>
   </g>
   <g id="patch_5">
    <path d="M 52.7725 308.51625 
L 722.3725 308.51625 
" style="fill: none; stroke: #000000; stroke-width: 0.8; stroke-linejoin: miter; stroke-linecap: square"/>
   </g>
   <g id="patch_6">
    <path d="M 52.7725 145.43625 
L 722.3725 145.43625 
" style="fill: none; stroke: #000000; stroke-width: 0.8; stroke-linejoin: miter; stroke-linecap: square"/>
   </g>
   <g id="text_17">
    <!-- SMARCB1 -->
    <g transform="translate(334.839043 321.060865) scale(0.1 -0.1)">
     <defs>
      <path id="DejaVuSans-53" d="M 3425 4513 
L 3425 3897 
Q 3066 4069 2747 4153 
Q 2428 4238 2131 4238 
Q 1616 4238 1336 4038 
Q 1056 3838 1056 3469 
Q 1056 3159 1242 3001 
Q 1428 2844 1947 2747 
L 2328 2669 
Q 3034 2534 3370 2195 
Q 3706 1856 3706 1288 
Q 3706 609 3251 259 
Q 2797 -91 1919 -91 
Q 1588 -91 1214 -16 
Q 841 59 441 206 
L 441 856 
Q 825 641 1194 531 
Q 1563 422 1919 422 
Q 2459 422 2753 634 
Q 3047 847 3047 1241 
Q 3047 1584 2836 1778 
Q 2625 1972 2144 2069 
L 1759 2144 
Q 1053 2284 737 2584 
Q 422 2884 422 3419 
Q 422 4038 858 4394 
Q 1294 4750 2059 4750 
Q 2388 4750 2728 4690 
Q 3069 4631 3425 4513 
z
" transform="scale(0.015625)"/>
      <path id="DejaVuSans-4d" d="M 628 4666 
L 1569 4666 
L 2759 1491 
L 3956 4666 
L 4897 4666 
L 4897 0 
L 4281 0 
L 4281 4097 
L 3078 897 
L 2444 897 
L 1241 4097 
L 1241 0 
L 628 0 
L 628 4666 
z
" transform="scale(0.015625)"/>
      <path id="DejaVuSans-41" d="M 2188 4044 
L 1331 1722 
L 3047 1722 
L 2188 4044 
z
M 1831 4666 
L 2547 4666 
L 4325 0 
L 3669 0 
L 3244 1197 
L 1141 1197 
L 716 0 
L 50 0 
L 1831 4666 
z
" transform="scale(0.015625)"/>
      <path id="DejaVuSans-52" d="M 2841 2188 
Q 3044 2119 3236 1894 
Q 3428 1669 3622 1275 
L 4263 0 
L 3584 0 
L 2988 1197 
Q 2756 1666 2539 1819 
Q 2322 1972 1947 1972 
L 1259 1972 
L 1259 0 
L 628 0 
L 628 4666 
L 2053 4666 
Q 2853 4666 3247 4331 
Q 3641 3997 3641 3322 
Q 3641 2881 3436 2590 
Q 3231 2300 2841 2188 
z
M 1259 4147 
L 1259 2491 
L 2053 2491 
Q 2509 2491 2742 2702 
Q 2975 2913 2975 3322 
Q 2975 3731 2742 3939 
Q 2509 4147 2053 4147 
L 1259 4147 
z
" transform="scale(0.015625)"/>
      <path id="DejaVuSans-43" d="M 4122 4306 
L 4122 3641 
Q 3803 3938 3442 4084 
Q 3081 4231 2675 4231 
Q 1875 4231 1450 3742 
Q 1025 3253 1025 2328 
Q 1025 1406 1450 917 
Q 1875 428 2675 428 
Q 3081 428 3442 575 
Q 3803 722 4122 1019 
L 4122 359 
Q 3791 134 3420 21 
Q 3050 -91 2638 -91 
Q 1578 -91 968 557 
Q 359 1206 359 2328 
Q 359 3453 968 4101 
Q 1578 4750 2638 4750 
Q 3056 4750 3426 4639 
Q 3797 4528 4122 4306 
z
" transform="scale(0.015625)"/>
      <path id="DejaVuSans-42" d="M 1259 2228 
L 1259 519 
L 2272 519 
Q 2781 519 3026 730 
Q 3272 941 3272 1375 
Q 3272 1813 3026 2020 
Q 2781 2228 2272 2228 
L 1259 2228 
z
M 1259 4147 
L 1259 2741 
L 2194 2741 
Q 2656 2741 2882 2914 
Q 3109 3088 3109 3444 
Q 3109 3797 2882 3972 
Q 2656 4147 2194 4147 
L 1259 4147 
z
M 628 4666 
L 2241 4666 
Q 2963 4666 3353 4366 
Q 3744 4066 3744 3513 
Q 3744 3084 3544 2831 
Q 3344 2578 2956 2516 
Q 3422 2416 3680 2098 
Q 3938 1781 3938 1306 
Q 3938 681 3513 340 
Q 3088 0 2303 0 
L 628 0 
L 628 4666 
z
" transform="scale(0.015625)"/>
     </defs>
     <use xlink:href="#DejaVuSans-53"/>
     <use xlink:href="#DejaVuSans-4d" x="63.476562"/>
     <use xlink:href="#DejaVuSans-41" x="149.755859"/>
     <use xlink:href="#DejaVuSans-52" x="218.164062"/>
     <use xlink:href="#DejaVuSans-43" x="282.646484"/>
     <use xlink:href="#DejaVuSans-42" x="352.470703"/>
     <use xlink:href="#DejaVuSans-31" x="421.074219"/>
    </g>
   </g>
   <g id="text_18">
    <!-- Chrom 22 deleted area -->
    <g transform="translate(249.0025 25.43625) scale(0.24 -0.24)">
     <defs>
      <path id="DejaVuSans-68" d="M 3513 2113 
L 3513 0 
L 2938 0 
L 2938 2094 
Q 2938 2591 2744 2837 
Q 2550 3084 2163 3084 
Q 1697 3084 1428 2787 
Q 1159 2491 1159 1978 
L 1159 0 
L 581 0 
L 581 4863 
L 1159 4863 
L 1159 2956 
Q 1366 3272 1645 3428 
Q 1925 3584 2291 3584 
Q 2894 3584 3203 3211 
Q 3513 2838 3513 2113 
z
" transform="scale(0.015625)"/>
      <path id="DejaVuSans-64" d="M 2906 2969 
L 2906 4863 
L 3481 4863 
L 3481 0 
L 2906 0 
L 2906 525 
Q 2725 213 2448 61 
Q 2172 -91 1784 -91 
Q 1150 -91 751 415 
Q 353 922 353 1747 
Q 353 2572 751 3078 
Q 1150 3584 1784 3584 
Q 2172 3584 2448 3432 
Q 2725 3281 2906 2969 
z
M 947 1747 
Q 947 1113 1208 752 
Q 1469 391 1925 391 
Q 2381 391 2643 752 
Q 2906 1113 2906 1747 
Q 2906 2381 2643 2742 
Q 2381 3103 1925 3103 
Q 1469 3103 1208 2742 
Q 947 2381 947 1747 
z
" transform="scale(0.015625)"/>
      <path id="DejaVuSans-6c" d="M 603 4863 
L 1178 4863 
L 1178 0 
L 603 0 
L 603 4863 
z
" transform="scale(0.015625)"/>
     </defs>
     <use xlink:href="#DejaVuSans-43"/>
     <use xlink:href="#DejaVuSans-68" x="69.824219"/>
     <use xlink:href="#DejaVuSans-72" x="133.203125"/>
     <use xlink:href="#DejaVuSans-6f" x="172.066406"/>
     <use xlink:href="#DejaVuSans-6d" x="233.248047"/>
     <use xlink:href="#DejaVuSans-20" x="330.660156"/>
     <use xlink:href="#DejaVuSans-32" x="362.447266"/>
     <use xlink:href="#DejaVuSans-32" x="426.070312"/>
     <use xlink:href="#DejaVuSans-20" x="489.693359"/>
     <use xlink:href="#DejaVuSans-64" x="521.480469"/>
     <use xlink:href="#DejaVuSans-65" x="584.957031"/>
     <use xlink:href="#DejaVuSans-6c" x="646.480469"/>
     <use xlink:href="#DejaVuSans-65" x="674.263672"/>
     <use xlink:href="#DejaVuSans-74" x="735.787109"/>
     <use xlink:href="#DejaVuSans-65" x="774.996094"/>
     <use xlink:href="#DejaVuSans-64" x="836.519531"/>
     <use xlink:href="#DejaVuSans-20" x="899.996094"/>
     <use xlink:href="#DejaVuSans-61" x="931.783203"/>
     <use xlink:href="#DejaVuSans-72" x="993.0625"/>
     <use xlink:href="#DejaVuSans-65" x="1031.925781"/>
     <use xlink:href="#DejaVuSans-61" x="1093.449219"/>
    </g>
   </g>
  </g>
 </g>
 <defs>
  <clipPath id="pba3e39c6db">
   <rect x="52.7725" y="145.43625" width="669.6" height="163.08"/>
  </clipPath>
 </defs>
</svg>
